<?xml version="1.0" encoding="UTF-8" standalone="no"?>
<!-- Created with Inkscape (http://www.inkscape.org/) -->

<svg
   width="210mm"
   height="297mm"
   viewBox="0 0 210 297"
   version="1.1"
   id="svg1"
   xml:space="preserve"
   inkscape:version="1.4.2 (ebf0e940d0, 2025-05-08)"
   sodipodi:docname="population-fist-raised.svg"
   inkscape:export-filename="population-fist-raised.png"
   inkscape:export-xdpi="96"
   inkscape:export-ydpi="96"
   xmlns:inkscape="http://www.inkscape.org/namespaces/inkscape"
   xmlns:sodipodi="http://sodipodi.sourceforge.net/DTD/sodipodi-0.dtd"
   xmlns:xlink="http://www.w3.org/1999/xlink"
   xmlns="http://www.w3.org/2000/svg"
   xmlns:svg="http://www.w3.org/2000/svg"><sodipodi:namedview
     id="namedview1"
     pagecolor="#ffffff"
     bordercolor="#000000"
     borderopacity="0.25"
     inkscape:showpageshadow="2"
     inkscape:pageopacity="0.0"
     inkscape:pagecheckerboard="0"
     inkscape:deskcolor="#d1d1d1"
     inkscape:document-units="mm"
     inkscape:zoom="0.73813055"
     inkscape:cx="71.125629"
     inkscape:cy="489.07337"
     inkscape:window-width="1898"
     inkscape:window-height="1039"
     inkscape:window-x="10"
     inkscape:window-y="29"
     inkscape:window-maximized="1"
     inkscape:current-layer="layer1"
     showgrid="false" /><defs
     id="defs1"><inkscape:path-effect
       effect="fillet_chamfer"
       id="path-effect9"
       is_visible="true"
       lpeversion="1"
       nodesatellites_param="F,0,0,1,0,0,0,1 @ F,0,0,1,0,0,0,1"
       radius="0"
       unit="px"
       method="auto"
       mode="F"
       chamfer_steps="1"
       flexible="false"
       use_knot_distance="true"
       apply_no_radius="true"
       apply_with_radius="true"
       only_selected="false"
       hide_knots="false" /><g
       id="s-7"><g
         id="c"><path
           id="t"
           d="M0,0v1h0.5z"
           transform="translate(0,-1)rotate(18)" /><use
           xlink:href="#t"
           transform="scale(-1,1)"
           id="use1" /></g><g
         id="a"><use
           xlink:href="#c"
           transform="rotate(72)"
           id="use2" /><use
           xlink:href="#c"
           transform="rotate(144)"
           id="use3-8" /></g><use
         xlink:href="#a"
         transform="scale(-1,1)"
         id="use4-6" /></g></defs><g
     inkscape:label="Calque 1"
     inkscape:groupmode="layer"
     id="layer1"><path
       style="fill:#000000;stroke-width:0.834215"
       d="m 25.679456,171.37339 c 0.885502,-1.37341 2.492653,-0.80188 2.713244,-0.80188 0.0453,0 0.08234,-8.19421 0.08234,-18.20935 v -18.20933 h 0.993241 0.993233 v -1.76576 c 0,-1.73632 0.0092,-1.76575 0.5518,-1.76575 0.52986,0 0.551749,-0.0548 0.550565,-1.3795 -0.0017,-1.93597 -0.283183,-2.75149 -1.55073,-4.49322 -3.293288,-4.52531 -6.735642,-10.12233 -6.976563,-11.34339 -0.119877,-0.60758 2.68371,-9.06959 3.333397,-10.06115 0.329698,-0.50319 0.49861,-0.57013 1.200827,-0.47594 0.449433,0.0603 2.401095,0.80109 4.337024,1.64623 1.935929,0.84514 4.243475,1.81082 5.127885,2.14595 1.237541,0.46894 1.584591,0.69319 1.506333,0.97331 -0.05589,0.20019 -0.163589,0.67282 -0.239244,1.05029 -0.141884,0.7079 -0.937332,1.59561 -1.852383,2.06723 -0.820141,0.4227 -3.551836,0.31374 -5.443852,-0.21716 -2.350825,-0.65964 -2.308606,-0.40638 0.05372,0.32221 3.008979,0.92803 5.532787,2.43685 7.52289,4.49745 0.400165,0.41433 0.775378,0.70552 0.833814,0.64709 0.197292,-0.19729 -1.836273,-2.27053 -3.201774,-3.26424 l -1.355808,-0.98666 0.919764,-0.15892 c 0.505868,-0.0874 1.163805,-0.31882 1.46207,-0.51425 0.622549,-0.40792 0.596246,-0.42149 0.877068,0.45245 0.313406,0.97532 1.448973,1.65539 2.764162,1.65539 1.306839,0 1.830768,-0.25225 2.371823,-1.14195 0.404327,-0.66487 0.41171,-0.66703 0.664435,-0.19482 0.721738,1.34858 3.183197,1.79269 4.37549,0.78944 0.784812,-0.66038 1.021679,-1.20464 1.586908,-3.64633 l 0.434309,-1.87612 -0.09598,1.87612 c -0.0528,1.03186 -0.190943,4.21022 -0.307016,7.06301 -0.323967,7.96081 -0.820165,10.10752 -2.609005,11.28699 -0.587404,0.38731 -0.593685,0.4083 -0.122512,0.40969 0.463931,0.002 0.496624,0.0959 0.496624,1.43612 0,1.12813 0.07074,1.43468 0.331075,1.43468 0.266707,0 0.331083,0.34334 0.331083,1.76575 v 1.76576 h 0.882875 0.882873 v 11.84526 c 0,6.5149 0.04655,11.7987 0.103467,11.7418 0.107297,-0.10729 4.844377,-24.56732 7.154142,-36.94058 1.948075,-10.43571 2.517686,-13.95065 2.539559,-15.67107 0.01819,-1.42846 -0.06557,-1.71991 -1.109222,-3.86259 -2.189889,-4.495859 -4.494274,-10.595362 -4.494274,-11.895953 0,-0.939818 4.774295,-9.336532 5.542406,-9.747608 0.251966,-0.13485 0.6783,-0.189925 0.947401,-0.122387 0.269101,0.06757 2.668453,1.580912 5.331884,3.363036 4.343472,2.906254 4.837653,3.298644 4.794449,3.806889 -0.07057,0.829719 -0.728604,1.61494 -1.840862,2.196579 -1.413944,0.73939 -2.973642,0.543458 -5.814227,-0.730388 -2.210702,-0.991372 -3.286547,-1.261258 -1.302584,-0.326762 3.039945,1.431888 5.69329,3.6518 7.509985,6.283214 0.485671,0.703476 0.703943,0.903538 0.602027,0.5518 -0.224704,-0.775503 -1.323139,-2.336502 -2.594324,-3.686796 l -1.081226,-1.148513 0.778656,0.126358 c 0.450101,0.07308 1.189649,-0.01368 1.752602,-0.205492 0.968315,-0.329932 0.973379,-0.328981 0.878729,0.166142 -0.25165,1.316416 1.377688,2.761827 3.113256,2.761827 0.812675,0 1.164004,-0.129662 1.735925,-0.640677 l 0.71705,-0.640677 0.445212,0.783236 c 0.85089,1.496931 2.829473,2.030378 4.271004,1.151516 0.562578,-0.342987 0.991514,-0.979076 1.822701,-2.702981 1.234062,-2.559479 1.259989,-2.074133 0.08623,1.614264 -0.406705,1.278017 -1.051053,3.860438 -1.431897,5.738705 -1.221991,6.026738 -2.463644,8.949878 -4.189226,9.862378 -0.530093,0.28032 -0.778497,0.50531 -0.557898,0.50531 0.486781,0 0.494306,-0.11469 -0.760411,11.58776 -2.276064,21.22825 -4.090656,36.81535 -5.208821,44.74297 -0.308542,2.18754 -0.531244,3.99054 -0.494881,4.00667 3.152606,1.39838 5.674671,3.25992 7.32851,5.40921 0.985708,1.281 2.907322,4.61539 2.338721,4.60761 -35.794049,-0.48979 -33.565967,-0.11361 -53.181092,0 0,0 -0.609297,-6.61105 -0.158976,-7.3095 z m 53.786964,7.30946 c 0.141608,-1.46058 1.084629,-8.83065 1.135575,-8.87493 0.04021,-0.0349 0.76168,0.0216 1.603352,0.12562 0.841673,0.104 1.55335,0.16591 1.581513,0.13758 0.06999,-0.0704 2.552697,-21.17233 3.498847,-29.73825 0.84551,-7.65481 1.445577,-13.83614 1.445577,-14.89098 0,-0.44248 -0.626378,-1.80472 -1.782425,-3.87641 -1.867123,-3.34597 -3.766579,-7.31608 -4.615326,-9.64663 -0.441667,-1.21277 -0.467302,-1.46137 -0.21622,-2.09683 0.6317,-1.59874 3.997498,-8.44688 4.33468,-8.81946 0.650745,-0.71907 1.431963,-0.45829 5.161795,1.72302 1.995792,1.1672 4.258149,2.43358 5.027454,2.81418 1.379432,0.68243 1.397026,0.70257 1.274897,1.45932 -0.42852,2.65527 -3.528095,3.39576 -7.502577,1.79236 -0.956386,-0.38583 -1.850297,-0.6643 -1.986474,-0.61883 -0.136186,0.0455 0.325619,0.2972 1.026217,0.55941 0.700599,0.2622 1.745578,0.7158 2.322179,1.00798 1.076646,0.54559 4.231729,2.90747 4.249431,3.18111 0.0058,0.0841 0.465075,0.64955 1.021413,1.25653 l 1.011527,1.10359 -0.512867,-0.94269 c -0.282073,-0.51848 -1.227747,-1.63587 -2.101487,-2.48309 l -1.58862,-1.5404 h 0.86644 c 0.476546,0 1.210888,-0.14392 1.631866,-0.31982 0.737863,-0.30829 0.765718,-0.30234 0.773251,0.16554 0.02161,1.33958 1.317617,2.35786 3.003732,2.36002 0.96046,8.4e-4 1.24574,-0.10159 1.85122,-0.6672 0.39369,-0.36776 0.73837,-0.6409 0.76597,-0.60698 0.0276,0.0339 0.16929,0.29047 0.31487,0.5701 0.41417,0.79551 1.54207,1.36594 2.70268,1.36686 1.44825,8.4e-4 2.19223,-0.68056 2.95529,-2.70797 0.33023,-0.87737 0.72595,-1.8932 0.8794,-2.25738 l 0.27899,-0.66216 -0.11487,0.88288 c -0.0632,0.48558 -0.34556,1.87611 -0.62752,3.09007 -0.28195,1.21395 -0.62528,3.05144 -0.76295,4.08331 -1.06115,7.95371 -1.94019,10.63566 -3.81168,11.62944 -0.54646,0.29017 -0.62162,0.39664 -0.32475,0.46002 0.49453,0.10558 0.50234,-0.0872 -0.27708,6.84321 -3.2926,29.27715 -4.159644,37.22532 -4.07563,37.36125 0.05364,0.0868 0.85315,0.22856 1.77674,0.3151 l 1.67924,0.15736 -0.11835,0.69657 c -0.0651,0.38311 -0.24053,1.81397 -0.38984,3.17967 l -0.27147,2.48309 H 91.010751 c -6.35232,0 -11.547267,-0.0249 -11.544331,-0.0551 z m 24.17381,-0.84654 c 2.74342,-2.83533 7.12599,-5.28169 11.36746,-6.34535 l 2.52747,-0.63382 0.0573,-0.74984 c 0.0315,-0.41242 0.49723,-8.29844 1.03487,-17.52451 0.53763,-9.22607 1.30372,-22.35708 1.70239,-29.18003 l 0.72487,-12.40538 0.99926,-0.0652 0.99925,-0.0652 0.11036,-1.6554 c 0.10737,-1.61048 0.12684,-1.65729 0.71734,-1.72523 0.60557,-0.0697 0.60698,-0.0739 0.60698,-1.82973 0,-2.02161 -0.12933,-2.34005 -2.29735,-5.65655 -2.26319,-3.462096 -5.42783,-9.498349 -5.42783,-10.353085 0,-0.336906 2.22173,-5.965245 3.25504,-8.246038 0.78228,-1.726708 1.15977,-2.086554 1.98418,-1.891423 0.33541,0.07942 2.86997,1.257537 5.63234,2.618099 l 5.0225,2.473756 -0.12296,0.772516 c -0.42347,2.660486 -3.29796,3.456293 -7.43894,2.059501 -1.06221,-0.358295 -1.9313,-0.578945 -1.9313,-0.490335 0,0.08861 0.52145,0.330533 1.15878,0.53761 2.47603,0.804483 4.99466,2.310399 6.95929,4.161055 1.80021,1.695758 1.86092,1.733198 1.17163,0.722496 -0.39982,-0.586261 -1.41757,-1.629163 -2.26166,-2.317557 l -1.5347,-1.251622 1.06074,-0.118734 c 0.58341,-0.06532 1.27769,-0.239128 1.54284,-0.386258 0.65976,-0.366095 0.73185,-0.342929 0.73185,0.235165 0,1.191826 1.32977,2.145942 2.99083,2.145942 0.88043,0 1.13709,-0.110825 1.80614,-0.779874 0.42894,-0.428928 0.79669,-0.751735 0.81725,-0.717332 0.58428,0.977666 0.93111,1.295151 1.76119,1.612161 1.33929,0.511482 2.3361,0.305239 3.18219,-0.658404 0.6062,-0.690429 0.84392,-1.30014 1.59527,-4.091656 0.50043,-1.859265 0.45459,-0.485513 -0.097,2.906888 -0.30259,1.860991 -0.61369,4.476171 -0.69134,5.811523 -0.31126,5.352996 -1.10336,8.428786 -2.54364,9.877196 -0.45268,0.45523 -0.68949,0.8277 -0.52625,0.8277 0.23215,0 0.26738,0.31516 0.16171,1.44669 -0.12125,1.29853 -0.0921,1.45788 0.28421,1.55579 0.37561,0.0977 0.4118,0.29194 0.34731,1.86409 l -0.072,1.755 h 0.78932 c 0.78417,0 0.78932,0.007 0.78932,0.95898 0,0.52744 -0.0999,2.48909 -0.22189,4.35921 -0.12204,1.87012 -0.71945,11.99172 -1.32759,22.49243 -0.60813,10.50072 -1.29417,22.22092 -1.52453,26.04489 -0.23036,3.82396 -0.38403,6.98788 -0.34148,7.03095 0.0425,0.043 0.91721,-0.48053 1.9437,-1.16353 2.41565,-1.60732 5.41179,-2.84766 8.3141,-3.44188 1.87054,-0.38298 2.90295,-0.46044 5.35258,-0.40161 2.68034,0.0644 3.03502,0.0311 3.03489,-0.28458 -1.3e-4,-0.32929 -1.15076,-5.84103 -3.65016,-17.48494 -0.54298,-2.52959 -0.93819,-4.67862 -0.87825,-4.77562 0.06,-0.097 0.45774,-0.24179 0.88396,-0.32175 0.89494,-0.16789 0.93556,-0.38078 0.45575,-2.3885 -0.30288,-1.26737 -0.30243,-1.27014 0.22859,-1.40342 0.65017,-0.16319 0.65198,-0.23757 0.0551,-2.25161 l -0.47841,-1.61413 -2.99407,-2.80025 c -3.16999,-2.96478 -6.51977,-6.44309 -7.53596,-7.8251 -0.47513,-0.64619 -0.59161,-1.01462 -0.52334,-1.65539 0.44695,-4.19543 1.04096,-8.68402 1.22813,-9.28043 0.37999,-1.21081 0.85249,-1.24697 5.11883,-0.39183 2.08215,0.41735 4.43134,0.86783 5.22041,1.00105 0.78908,0.13324 1.64717,0.28877 1.90688,0.34564 1.07778,0.23601 0.75815,2.52888 -0.50742,3.64007 -1.05216,0.92381 -2.25332,1.1993 -5.15169,1.18156 -2.34155,-0.0144 -2.5673,0.27272 -0.26429,0.33605 2.30691,0.0634 6.04734,1.36179 8.43091,2.92651 0.6355,0.41717 0.7138,0.43334 0.44143,0.0911 -0.47579,-0.5978 -2.52016,-1.86618 -3.93703,-2.44262 l -1.21564,-0.49458 0.98077,-0.43384 c 0.53943,-0.23861 1.16936,-0.62242 1.39983,-0.85289 0.28042,-0.28042 0.44803,-0.3321 0.50667,-0.1562 0.42885,1.28653 2.03626,2.02762 3.52715,1.62617 0.92076,-0.24793 2.04904,-1.2996 2.04904,-1.9099 0,-0.43624 0.21853,-0.39315 0.80628,0.159 0.68867,0.64698 2.4096,0.80501 3.36818,0.30931 1.10167,-0.5697 1.54975,-1.79438 1.57837,-4.31396 0.0301,-2.64805 0.28299,-1.93538 0.64049,1.80479 0.14298,1.49598 0.55783,4.11048 0.92188,5.81003 0.75635,3.53092 1.04339,7.43932 0.65174,8.87391 -0.13936,0.51041 -0.50036,1.22155 -0.80223,1.5803 -0.46945,0.55792 -0.48922,0.63669 -0.13667,0.54449 0.35033,-0.0916 0.45177,0.0935 0.67612,1.23387 0.20633,1.04871 0.35095,1.34165 0.66236,1.34165 0.31906,0 0.47437,0.35158 0.77983,1.76534 0.41055,1.90014 0.36414,1.86306 1.79859,1.43734 0.1448,-0.043 0.51587,1.21236 0.93517,3.16369 0.62583,2.91245 2.04913,9.60434 5.91066,27.78995 0.70244,3.30803 1.71779,6.89638 1.63465,6.89743 -4.74708,0.06 -12.95898,0 -12.95898,0 h -66.81239 z m 55.33033,-56.19158 c -0.15429,-0.0621 -0.4513,-0.42671 -0.66,-0.81027 -0.31604,-0.58085 -0.39231,-1.46577 -0.45632,-5.29487 -0.0423,-2.52861 -0.0173,-4.83502 0.0556,-5.12535 0.19489,-0.77651 0.90368,-1.04606 2.65184,-1.00847 2.42937,0.0522 2.40351,-0.0117 2.28756,5.65475 -0.10145,4.95778 -0.24028,5.62526 -1.32846,6.38745 -0.4663,0.32662 -1.94412,0.44064 -2.55025,0.19676 z m 5.69252,-1.23938 c -0.96637,-0.48895 -1.1012,-1.10105 -1.10469,-5.01521 -0.003,-3.63024 0.17845,-4.99468 0.71005,-5.33209 0.15396,-0.0977 0.93497,-0.1792 1.73558,-0.18106 2.27539,-0.005 2.29658,0.0402 2.29658,4.93157 0,3.55485 -0.0475,4.08257 -0.42274,4.70272 -0.67972,1.12316 -2.02343,1.49687 -3.21478,0.89407 z m -10.48852,-4.76135 -1.98647,-0.36277 0.0574,-2.63554 c 0.0773,-3.55352 0.19271,-3.72958 2.37124,-3.61957 2.47894,0.12518 2.53757,0.21694 2.53757,3.97177 0,3.54552 0.33181,3.25086 -2.97971,2.64611 z m -5.37921,-0.98891 -2.28915,-0.46152 0.15233,-2.0752 c 0.24765,-3.37381 0.49758,-3.66617 2.88817,-3.37837 2.05809,0.24777 2.13002,0.37622 2.04637,3.65394 -0.0388,1.52063 -0.16027,2.65007 -0.28786,2.67666 -0.12139,0.0253 -1.25083,-0.16168 -2.50986,-0.41551 z M 39.504808,112.37471 c -0.300151,-0.20254 -0.579245,-0.39331 -0.620214,-0.42395 -0.04096,-0.0306 -0.159718,-0.43365 -0.263904,-0.8956 -0.148031,-0.65634 0.0033,-1.78166 0.69345,-5.14921 1.085288,-5.29728 1.001575,-5.02052 1.646364,-5.443 0.488258,-0.31992 0.664886,-0.31716 2.092595,0.0327 2.056806,0.50404 2.372498,0.93339 1.99429,2.71227 -0.83474,3.92616 -1.860983,7.7786 -2.236697,8.39642 -0.6866,1.12902 -2.238448,1.49064 -3.305884,0.77035 z m 5.608434,-0.053 c -0.378483,-0.23079 -0.752829,-0.67734 -0.831896,-0.99235 -0.247645,-0.98673 1.39087,-8.32374 2.013336,-9.01537 0.399364,-0.44374 1.116772,-0.48673 2.376044,-0.14237 1.849519,0.50575 1.958209,0.97657 1.12814,4.88702 -0.801896,3.77777 -1.001198,4.37739 -1.680858,5.05705 -0.759736,0.75975 -1.961564,0.84214 -3.004766,0.20602 z m 59.239478,0.0772 c -1.34405,-0.72939 -1.34905,-1.42317 -0.0375,-5.19339 1.91536,-5.50565 2.01605,-5.62343 4.13095,-4.83215 0.74168,0.2775 1.41492,0.69933 1.62303,1.01693 0.33724,0.5147 0.3083,0.68913 -0.56067,3.37876 -1.14913,3.55679 -1.69725,4.80037 -2.4049,5.45619 -0.65132,0.60362 -1.82246,0.67755 -2.75099,0.17366 z m -5.917091,-0.92508 c -0.525322,-0.4714 -0.68273,-0.80419 -0.704678,-1.48986 -0.03562,-1.11338 2.624249,-9.30636 3.212249,-9.89436 0.51458,-0.514577 1.28665,-0.421863 3.0729,0.36901 1.60354,0.71 1.61151,0.85654 0.26095,4.7995 -1.45721,4.2543 -2.33149,6.04999 -3.15221,6.4744 -1.01519,0.52498 -1.912015,0.43871 -2.689211,-0.25869 z M 35.979366,105.4896 c -2.4056,-0.94975 -2.276972,-0.61696 -1.519563,-3.93155 0.548996,-2.402539 1.003852,-3.034089 2.036885,-2.82813 1.685856,0.336113 2.830482,0.830436 3.052809,1.31839 0.276942,0.60781 -0.839904,6.30162 -1.232119,6.28151 -0.132648,-0.007 -1.184751,-0.3849 -2.338012,-0.84022 z m 59.870114,-1.15553 c -1.122903,-0.61282 -2.041649,-1.24409 -2.041649,-1.40284 0,-0.53248 1.572787,-4.640825 1.926227,-5.031554 0.452904,-0.500704 0.891459,-0.486948 2.314445,0.07266 1.403592,0.551933 1.939466,0.998614 1.939466,1.616658 0,0.593676 -1.754654,5.872136 -1.949576,5.864846 -0.081,-0.003 -1.066002,-0.5069 -2.188913,-1.11972 z m -65.040627,-1.00281 c -1.20494,-0.53131 -2.226736,-1.00196 -2.270657,-1.04588 -0.159736,-0.15974 1.28605,-4.324022 1.61569,-4.653654 0.432549,-0.432548 1.058735,-0.428394 2.420191,0.0161 1.855861,0.605856 1.904295,0.750159 1.26844,3.779134 -0.299925,1.42874 -0.612264,2.65905 -0.694092,2.73403 -0.08184,0.075 -1.134632,-0.29839 -2.339572,-0.8297 z m 60.131223,-1.74169 c -1.152384,-0.65848 -2.122351,-1.27855 -2.155477,-1.37794 -0.09823,-0.294681 1.425089,-3.64925 1.901818,-4.18807 0.563053,-0.636405 1.021329,-0.62526 2.521013,0.06131 1.864654,0.853669 1.888929,0.919338 1.163546,3.146758 -0.341569,1.048842 -0.781826,2.277822 -0.97835,2.731082 l -0.357311,0.8241 z M 77.695432,93.071817 c -0.974671,-0.388661 -1.545149,-1.094006 -1.545149,-1.910452 0,-0.734485 1.596495,-4.811 2.879601,-7.352819 0.836701,-1.657493 1.316024,-1.781574 3.145265,-0.814177 1.183967,0.626145 1.378306,0.817322 1.436267,1.412943 0.07299,0.7497 -1.080041,3.892146 -2.298278,6.263835 -0.927755,1.806167 -1.191117,2.134664 -1.939599,2.419239 -0.719602,0.273589 -0.951864,0.27102 -1.678107,-0.0186 z m -5.849171,-1.102123 c -1.940918,-1.122219 -1.911487,-1.734808 0.34725,-7.228212 0.98006,-2.383577 1.939032,-4.507596 2.131043,-4.720037 0.51456,-0.569318 1.363507,-0.474051 2.950259,0.331075 1.175617,0.596513 1.425748,0.822118 1.485036,1.33939 0.127493,1.112342 -3.345143,8.804344 -4.431382,9.815679 -0.639693,0.595571 -1.858831,0.822536 -2.482206,0.462105 z M 138.85151,89.87901 c -0.85084,-0.715932 -0.86651,-1.268315 -0.11528,-4.063685 1.47056,-5.472007 1.97079,-6.379924 3.33058,-6.045046 1.26687,0.311997 2.46969,0.946375 2.60547,1.374169 0.15077,0.475043 -0.66133,3.967642 -1.56025,6.71014 -0.66605,2.032055 -1.23831,2.595842 -2.6349,2.595842 -0.69628,0 -1.12607,-0.151076 -1.62562,-0.57142 z m -5.20919,0.05347 c -0.69881,-0.315483 -1.20861,-1.149114 -1.20861,-1.976346 0,-0.389112 1.83022,-7.639347 2.3387,-9.264522 0.0675,-0.215678 0.36164,-0.548705 0.65369,-0.740066 0.48982,-0.320939 0.6511,-0.311454 2.07894,0.122238 2.10956,0.64076 2.36029,1.030664 1.87775,2.920102 -0.78322,3.066815 -1.94506,6.764347 -2.40495,7.653661 -0.6928,1.339724 -2.05328,1.86382 -3.33552,1.284933 z M 69.03449,83.979385 c -1.182099,-0.750268 -2.146076,-1.463446 -2.142164,-1.584841 0.0042,-0.121395 0.474535,-1.25994 1.045839,-2.53009 1.324583,-2.944862 1.697285,-3.212686 3.377618,-2.427106 1.608091,0.751811 2.185868,1.251948 2.185868,1.892116 0,0.442742 -1.631899,4.758519 -2.175548,5.753512 -0.09548,0.174768 -0.849798,-0.188491 -2.291613,-1.103591 z m 61.27211,-1.277116 -2.23747,-1.064717 0.535,-1.899665 c 1.11886,-3.972806 1.34074,-4.192513 3.53659,-3.501834 1.4049,0.441892 2.05875,0.964286 2.05875,1.64483 0,0.564463 -1.31483,5.5684 -1.5113,5.751677 -0.0793,0.07391 -1.15096,-0.344697 -2.38157,-0.930291 z M 64.101019,80.709013 c -1.081526,-0.744946 -2.011292,-1.394048 -2.06615,-1.442441 -0.166534,-0.146938 1.444209,-3.242175 2.081107,-3.999084 0.32788,-0.38967 0.794657,-0.708481 1.03728,-0.708481 0.242623,0 1.078047,0.356184 1.856494,0.791511 1.052479,0.588588 1.416881,0.913974 1.421286,1.269141 0.0067,0.512208 -2.01548,5.439297 -2.233185,5.442116 -0.07174,8.35e-4 -1.015306,-0.607817 -2.096832,-1.352762 z m 60.938591,-0.558432 c -1.09256,-0.554219 -2.01805,-1.036003 -2.05664,-1.070631 -0.14585,-0.13088 1.15581,-3.488803 1.61081,-4.155457 0.58955,-0.86378 1.46695,-0.89714 3.09446,-0.11765 1.39938,0.670225 1.4436,0.979627 0.56338,3.942558 -0.37055,1.247326 -0.67373,2.304618 -0.67373,2.349532 0,0.238619 -0.75273,-0.04263 -2.53828,-0.948352 z"
       id="path1"
       sodipodi:nodetypes="ssscccsscssscsscssssssscsssssssscscscssscccsssscsscscssssssccsssscssssssssscsssssssssssssssssssscscsscssccssscssccscsssssccscssssscssscccsssssssscssssssscssssscsssssssssscsssssssssssssssscsscsssssssssscssssssssssssssssssssscsssscsssssscscssscssssscsssssssssscssssssscssssscsssssccsssssssscsscsccscsccccsscssccsssssscssssscssccsssssssssssssssssssssssssssssssssssssssssccsssssssss" /></g></svg>
