<?xml version="1.0" encoding="UTF-8" standalone="no"?>
<!-- Created with Inkscape (http://www.inkscape.org/) -->

<svg
   width="210mm"
   height="297mm"
   viewBox="0 0 210 297"
   version="1.1"
   id="svg1"
   xml:space="preserve"
   inkscape:version="1.4.3 (0d15f75042, 2025-12-25)"
   sodipodi:docname="ballot-vote-BW.svg"
   inkscape:export-filename="money-as-protest.png"
   inkscape:export-xdpi="96"
   inkscape:export-ydpi="96"
   xmlns:inkscape="http://www.inkscape.org/namespaces/inkscape"
   xmlns:sodipodi="http://sodipodi.sourceforge.net/DTD/sodipodi-0.dtd"
   xmlns="http://www.w3.org/2000/svg"
   xmlns:svg="http://www.w3.org/2000/svg"><sodipodi:namedview
     id="namedview1"
     pagecolor="#ffffff"
     bordercolor="#000000"
     borderopacity="0.25"
     inkscape:showpageshadow="2"
     inkscape:pageopacity="0.0"
     inkscape:pagecheckerboard="0"
     inkscape:deskcolor="#d1d1d1"
     inkscape:document-units="mm"
     inkscape:zoom="7.8487312"
     inkscape:cx="309.34936"
     inkscape:cy="177.35351"
     inkscape:window-width="2538"
     inkscape:window-height="1399"
     inkscape:window-x="10"
     inkscape:window-y="29"
     inkscape:window-maximized="1"
     inkscape:current-layer="layer1"
     showguides="true"
     showgrid="false" /><defs
     id="defs1"><inkscape:path-effect
       effect="fillet_chamfer"
       id="path-effect9"
       is_visible="true"
       lpeversion="1"
       nodesatellites_param="F,0,0,1,0,0,0,1 @ F,0,0,1,0,0,0,1"
       radius="0"
       unit="px"
       method="auto"
       mode="F"
       chamfer_steps="1"
       flexible="false"
       use_knot_distance="true"
       apply_no_radius="true"
       apply_with_radius="true"
       only_selected="false"
       hide_knots="false" /><inkscape:path-effect
       effect="fillet_chamfer"
       id="path-effect9-5"
       is_visible="true"
       lpeversion="1"
       nodesatellites_param="F,0,0,1,0,0,0,1 @ F,0,0,1,0,0,0,1"
       radius="0"
       unit="px"
       method="auto"
       mode="F"
       chamfer_steps="1"
       flexible="false"
       use_knot_distance="true"
       apply_no_radius="true"
       apply_with_radius="true"
       only_selected="false"
       hide_knots="false" /><inkscape:path-effect
       effect="fillet_chamfer"
       id="path-effect9-9"
       is_visible="true"
       lpeversion="1"
       nodesatellites_param="F,0,0,1,0,0,0,1 @ F,0,0,1,0,0,0,1"
       radius="0"
       unit="px"
       method="auto"
       mode="F"
       chamfer_steps="1"
       flexible="false"
       use_knot_distance="true"
       apply_no_radius="true"
       apply_with_radius="true"
       only_selected="false"
       hide_knots="false" /><inkscape:path-effect
       effect="fillet_chamfer"
       id="path-effect9-0"
       is_visible="true"
       lpeversion="1"
       nodesatellites_param="F,0,0,1,0,0,0,1 @ F,0,0,1,0,0,0,1"
       radius="0"
       unit="px"
       method="auto"
       mode="F"
       chamfer_steps="1"
       flexible="false"
       use_knot_distance="true"
       apply_no_radius="true"
       apply_with_radius="true"
       only_selected="false"
       hide_knots="false" /></defs><g
     inkscape:label="Calque 1"
     inkscape:groupmode="layer"
     id="layer1"><g
       inkscape:label="Clip"
       id="g3"
       style="fill:#000000"
       transform="matrix(1.4302263,0,0,1.4302263,-42.275914,-126.82897)"><g
         inkscape:label="Calque 1"
         id="layer1-6"
         transform="matrix(0.41732048,0,0,0.41732048,44.164852,106.72019)"
         style="fill:#000000"><rect
           style="fill:#000000;fill-opacity:1;stroke:none;stroke-width:3.47374;stroke-linecap:square;stroke-linejoin:miter;stroke-dasharray:none;stroke-dashoffset:0;stroke-opacity:1;paint-order:stroke fill markers"
           id="rect12"
           width="169.8392"
           height="80.828621"
           x="20.080402"
           y="148.5" /><rect
           style="fill:#000000;fill-opacity:1;stroke:none;stroke-width:3.71687;stroke-linecap:square;stroke-linejoin:miter;stroke-dasharray:none;stroke-dashoffset:0;stroke-opacity:1;paint-order:stroke fill markers"
           id="rect13"
           width="178.92595"
           height="18.193281"
           x="15.4331"
           y="126.70778" /><path
           id="path13"
           style="fill:#000000;fill-opacity:1;stroke:none;stroke-width:3.49121;stroke-linecap:round;stroke-linejoin:round;stroke-dasharray:none;stroke-dashoffset:0;stroke-opacity:1;paint-order:stroke fill markers"
           d="M 41.876431,84.900575 16.878826,123.26297 191.81948,123.15887 165.02601,85.274425 Z m 19.690496,15.213875 h 84.208683 c 1.55827,0 2.81327,1.255 2.81327,2.81327 v 0.59981 c 0,1.55827 -1.255,2.81208 -2.81327,2.81208 H 61.566927 c -1.558267,0 -2.813267,-1.25381 -2.813267,-2.81208 v -0.59981 c 0,-1.55827 1.255,-2.81327 2.813267,-2.81327 z" /></g></g><path
       id="rect1"
       style="fill:#ffffff;stroke:#152211;stroke-width:2.27502;stroke-linecap:square;paint-order:stroke fill markers;fill-opacity:1"
       d="M 71.16673,45.874818 100.2174,49.756683 94.105286,95.497831 65.054618,91.615966 Z" /><path
       id="path2-43"
       style="fill:#3e6732;fill-opacity:1;stroke:#86bc76;stroke-width:1.41773;stroke-linecap:square;stroke-linejoin:miter;stroke-dasharray:none;stroke-dashoffset:0;stroke-opacity:1;paint-order:stroke fill markers"
       d="m 91.484995,88.896252 a 2.8953824,2.8715323 7.6110019 0 0 -3.25045,2.46295 2.8953824,2.8715323 7.6110019 0 0 -0.0137,0.111553 l 3.126046,0.417715 0.39369,-2.946255 a 2.8953824,2.8715323 7.6110019 0 0 -0.256621,-0.04577 z" /><path
       id="path8"
       style="fill:#000000;stroke-width:1.1741;stroke-linecap:square;paint-order:stroke fill markers;fill-opacity:1"
       d="m 92.212458,71.965954 a 9.6615755,5.9042962 7.6110019 0 1 -10.358463,4.572637 9.6615755,5.9042962 7.6110019 0 1 -8.794454,-7.131925 9.6615755,5.9042962 7.6110019 0 1 10.358463,-4.572636 9.6615755,5.9042962 7.6110019 0 1 8.794454,7.131924 z" /><path
       d="m 84.706402,74.797233 q -0.581084,0.240189 -1.192784,0.320259 -0.606022,0.08083 -1.241898,-0.0041 -1.487498,-0.198766 -2.410819,-1.073394 -0.916885,-0.879546 -1.156827,-2.327425 l -1.232012,-0.164626 0.647554,-1.040347 0.556392,0.07435 q 0.0049,-0.08024 0.01065,-0.166164 0.01214,-0.09084 0.03338,-0.249809 0.022,-0.164646 0.03414,-0.255487 0.01781,-0.09008 0.03487,-0.174484 l -1.05601,-0.141108 0.647553,-1.040345 0.732394,0.09786 q 0.623793,-1.338244 1.732248,-1.935598 1.114133,-0.596597 2.601631,-0.397831 0.635876,0.08497 1.199413,0.322078 0.569217,0.237869 1.06685,0.6222 l -0.234422,1.75434 q -0.4007,-0.504293 -0.893441,-0.79551 -0.49198,-0.296895 -1.054051,-0.372001 -0.721039,-0.09635 -1.279047,0.187377 -0.551573,0.278807 -0.896579,0.91461 l 3.060157,0.40891 -0.636198,1.041863 -2.798994,-0.374013 q -0.02349,0.08932 -0.04283,0.190758 -0.01366,0.102195 -0.04097,0.306584 -0.0099,0.07381 -0.022,0.164648 -0.0057,0.08592 -0.01292,0.183195 l 2.435635,0.32546 -0.653232,1.039588 -1.697564,-0.226835 q 0.191319,0.730583 0.638981,1.142911 0.45334,0.413086 1.168702,0.508675 0.562071,0.07511 1.102631,-0.07804 0.546995,-0.158062 1.083835,-0.542857 z"
       id="text8"
       style="font-weight:bold;font-size:68.8617px;font-family:'DejaVu Sans';-inkscape-font-specification:'DejaVu Sans, Bold';letter-spacing:0px;stroke-width:0.277103;stroke-linecap:square;paint-order:stroke fill markers;fill:#ffffff;fill-opacity:1"
       aria-label="€" /><path
       sodipodi:nodetypes="cccccsccsccccc"
       inkscape:connector-curvature="0"
       id="path3347"
       d="m 150.09567,24.433095 -45.04639,7.635677 -21.964991,15.640946 12.732372,1.988232 12.367959,-7.457426 c 0,0 7.02382,1.405242 8.20865,2.455421 1.2291,1.089427 -3.72544,5.286223 -3.72544,5.286223 l -16.064458,6.880197 c 0,0 -4.296969,3.863953 -3.21059,5.07322 1.08638,1.209267 8.116098,0.387179 8.116098,0.387179 14.53334,-4.733909 20.9107,-8.591549 33.86434,-11.435606 l 14.2191,-7.755157 4.83033,-0.125913 z"
       style="fill:#ffffff;fill-opacity:1;fill-rule:evenodd;stroke:#000000;stroke-width:1.38855;stroke-linecap:butt;stroke-linejoin:miter;stroke-opacity:1" /><path
       sodipodi:nodetypes="ccccc"
       inkscape:connector-curvature="0"
       id="path3349"
       d="m 178.07677,39.071452 -2.47584,-18.870724 -25.70773,3.613953 3.81213,18.785995 z"
       style="fill:#ffffff;fill-opacity:1;fill-rule:evenodd;stroke:#000000;stroke-width:2.77711;stroke-linecap:butt;stroke-linejoin:miter;stroke-opacity:1" /><path
       style="fill:#000000;stroke-width:2.1811;stroke-linecap:round;stroke-linejoin:round;paint-order:stroke fill markers"
       d="m 57.636824,85.559656 62.657096,-0.0216"
       id="path6" /><rect
       style="fill:#ffffff;stroke-width:0.943126;stroke-linecap:round;stroke-linejoin:round;paint-order:stroke fill markers;fill-opacity:1"
       id="rect20"
       width="32.93531"
       height="1.1144252"
       x="63.77647"
       y="88.160927"
       ry="0.0011041603" /><rect
       style="fill:#000000;fill-opacity:1;stroke-width:2.1811;stroke-linecap:round;stroke-linejoin:round;paint-order:stroke fill markers"
       id="rect21"
       width="32.287792"
       height="6.9413686"
       x="63.679989"
       y="89.275352"
       ry="0.003702743" /></g></svg>
