<?xml version="1.0" encoding="UTF-8" standalone="no"?>
<!-- Created with Inkscape (http://www.inkscape.org/) -->

<svg
   width="210mm"
   height="297mm"
   viewBox="0 0 210 297"
   version="1.1"
   id="svg1"
   xml:space="preserve"
   inkscape:version="1.4.2 (ebf0e940d0, 2025-05-08)"
   sodipodi:docname="ballot-vote.svg"
   inkscape:export-filename="money-as-protest.png"
   inkscape:export-xdpi="96"
   inkscape:export-ydpi="96"
   xmlns:inkscape="http://www.inkscape.org/namespaces/inkscape"
   xmlns:sodipodi="http://sodipodi.sourceforge.net/DTD/sodipodi-0.dtd"
   xmlns="http://www.w3.org/2000/svg"
   xmlns:svg="http://www.w3.org/2000/svg"><sodipodi:namedview
     id="namedview1"
     pagecolor="#ffffff"
     bordercolor="#000000"
     borderopacity="0.25"
     inkscape:showpageshadow="2"
     inkscape:pageopacity="0.0"
     inkscape:pagecheckerboard="0"
     inkscape:deskcolor="#d1d1d1"
     inkscape:document-units="mm"
     inkscape:zoom="0.69373638"
     inkscape:cx="340.18686"
     inkscape:cy="547.7585"
     inkscape:window-width="1898"
     inkscape:window-height="1039"
     inkscape:window-x="10"
     inkscape:window-y="29"
     inkscape:window-maximized="1"
     inkscape:current-layer="layer1"
     showguides="true"
     showgrid="false" /><defs
     id="defs1"><inkscape:path-effect
       effect="fillet_chamfer"
       id="path-effect9"
       is_visible="true"
       lpeversion="1"
       nodesatellites_param="F,0,0,1,0,0,0,1 @ F,0,0,1,0,0,0,1"
       radius="0"
       unit="px"
       method="auto"
       mode="F"
       chamfer_steps="1"
       flexible="false"
       use_knot_distance="true"
       apply_no_radius="true"
       apply_with_radius="true"
       only_selected="false"
       hide_knots="false" /><inkscape:path-effect
       effect="fillet_chamfer"
       id="path-effect9-5"
       is_visible="true"
       lpeversion="1"
       nodesatellites_param="F,0,0,1,0,0,0,1 @ F,0,0,1,0,0,0,1"
       radius="0"
       unit="px"
       method="auto"
       mode="F"
       chamfer_steps="1"
       flexible="false"
       use_knot_distance="true"
       apply_no_radius="true"
       apply_with_radius="true"
       only_selected="false"
       hide_knots="false" /><inkscape:path-effect
       effect="fillet_chamfer"
       id="path-effect9-9"
       is_visible="true"
       lpeversion="1"
       nodesatellites_param="F,0,0,1,0,0,0,1 @ F,0,0,1,0,0,0,1"
       radius="0"
       unit="px"
       method="auto"
       mode="F"
       chamfer_steps="1"
       flexible="false"
       use_knot_distance="true"
       apply_no_radius="true"
       apply_with_radius="true"
       only_selected="false"
       hide_knots="false" /><inkscape:path-effect
       effect="fillet_chamfer"
       id="path-effect9-0"
       is_visible="true"
       lpeversion="1"
       nodesatellites_param="F,0,0,1,0,0,0,1 @ F,0,0,1,0,0,0,1"
       radius="0"
       unit="px"
       method="auto"
       mode="F"
       chamfer_steps="1"
       flexible="false"
       use_knot_distance="true"
       apply_no_radius="true"
       apply_with_radius="true"
       only_selected="false"
       hide_knots="false" /></defs><g
     inkscape:label="Calque 1"
     inkscape:groupmode="layer"
     id="layer1"><rect
       style="fill:#ee1b24;stroke-width:1.61079;stroke-linecap:round;stroke-linejoin:round;paint-order:stroke fill markers;fill-opacity:1"
       id="rect2"
       width="210"
       height="297"
       x="0"
       y="0" /><g
       inkscape:label="Clip"
       id="g3"
       style="fill:#000000"
       transform="matrix(1.4302263,0,0,1.4302263,-42.275914,-126.82897)"><g
         inkscape:label="Calque 1"
         id="layer1-6"
         transform="matrix(0.41732048,0,0,0.41732048,44.164852,106.72019)"
         style="fill:#000000"><rect
           style="fill:#000000;fill-opacity:1;stroke:none;stroke-width:3.47374;stroke-linecap:square;stroke-linejoin:miter;stroke-dasharray:none;stroke-dashoffset:0;stroke-opacity:1;paint-order:stroke fill markers"
           id="rect12"
           width="169.8392"
           height="80.828621"
           x="20.080402"
           y="148.5" /><rect
           style="fill:#000000;fill-opacity:1;stroke:none;stroke-width:3.71687;stroke-linecap:square;stroke-linejoin:miter;stroke-dasharray:none;stroke-dashoffset:0;stroke-opacity:1;paint-order:stroke fill markers"
           id="rect13"
           width="178.92595"
           height="18.193281"
           x="15.4331"
           y="126.70778" /><path
           id="path13"
           style="fill:#000000;fill-opacity:1;stroke:none;stroke-width:3.49121;stroke-linecap:round;stroke-linejoin:round;stroke-dasharray:none;stroke-dashoffset:0;stroke-opacity:1;paint-order:stroke fill markers"
           d="M 41.876431,84.900575 16.878826,123.26297 191.81948,123.15887 165.02601,85.274425 Z m 19.690496,15.213875 h 84.208683 c 1.55827,0 2.81327,1.255 2.81327,2.81327 v 0.59981 c 0,1.55827 -1.255,2.81208 -2.81327,2.81208 H 61.566927 c -1.558267,0 -2.813267,-1.25381 -2.813267,-2.81208 v -0.59981 c 0,-1.55827 1.255,-2.81327 2.813267,-2.81327 z" /></g></g><g
       inkscape:label="Clip"
       id="g5"
       transform="matrix(1.4302263,0,0,1.4302263,-42.275914,-126.82897)"><g
         inkscape:label="Calque 1"
         id="layer1-8"
         transform="matrix(0.11805991,0.01577563,-0.01577563,0.11805991,77.352392,118.98824)"><path
           id="rect1"
           style="fill:#86bc76;stroke:#152211;stroke-width:13.3547;stroke-linecap:square;paint-order:stroke fill markers"
           d="M 18.319033,12.4982 H 190.36675 V 283.39249 H 18.319033 Z" /><path
           id="rect1-9"
           style="fill:#86bc76;stroke:#152211;stroke-width:8.01285;stroke-linecap:square;paint-order:stroke fill markers"
           d="M 40.70866,34.887821 H 167.97707 V 261.00277 H 40.70866 Z" /><path
           id="rect8"
           style="fill:#538943;stroke-width:15.9301;stroke-linecap:square;paint-order:stroke fill markers"
           d="M 40.70866,34.887821 H 167.97711 V 261.0028 H 40.70866 Z" /><path
           id="path2-43"
           style="fill:#3e6732;fill-opacity:1;stroke:#86bc76;stroke-width:8.32228;stroke-linecap:square;stroke-linejoin:miter;stroke-dasharray:none;stroke-dashoffset:0;stroke-opacity:1;paint-order:stroke fill markers"
           d="m 169.98812,247.01882 a 16.996351,16.856347 0 0 0 -16.99765,16.8577 16.996351,16.856347 0 0 0 0.007,0.65972 h 18.51348 v -17.4487 a 16.996351,16.856347 0 0 0 -1.52872,-0.0668 z" /><path
           id="path2-43-8"
           style="fill:#3e6732;fill-opacity:1;stroke:#86bc76;stroke-width:8.32228;stroke-linecap:square;stroke-linejoin:miter;stroke-dasharray:none;stroke-dashoffset:0;stroke-opacity:1;paint-order:stroke fill markers"
           d="m 169.98812,48.871747 a 16.996351,16.856347 0 0 1 -16.99765,-16.857691 16.996351,16.856347 0 0 1 0.007,-0.659724 h 18.51348 V 48.80297 a 16.996351,16.856347 0 0 1 -1.52872,0.06677 z" /><path
           id="path2-43-8-4"
           style="fill:#3e6732;fill-opacity:1;stroke:#86bc76;stroke-width:8.32228;stroke-linecap:square;stroke-linejoin:miter;stroke-dasharray:none;stroke-dashoffset:0;stroke-opacity:1;paint-order:stroke fill markers"
           d="m 38.697656,247.01882 a 16.996351,16.856347 0 0 1 16.997715,16.8577 16.996351,16.856347 0 0 1 -0.0067,0.65972 H 37.175215 v -17.4487 a 16.996351,16.856347 0 0 1 1.528718,-0.0668 z" /><path
           id="path2-43-8-4-8"
           style="fill:#3e6732;fill-opacity:1;stroke:#86bc76;stroke-width:8.32228;stroke-linecap:square;stroke-linejoin:miter;stroke-dasharray:none;stroke-dashoffset:0;stroke-opacity:1;paint-order:stroke fill markers"
           d="m 38.697656,48.871747 a 16.996351,16.856347 0 0 0 16.997715,-16.857691 16.996351,16.856347 0 0 0 -0.0067,-0.659724 H 37.175215 V 48.80297 a 16.996351,16.856347 0 0 0 1.528718,0.06677 z" /><path
           id="path8"
           style="fill:#ffffff;stroke-width:6.89218;stroke-linecap:square;paint-order:stroke fill markers"
           d="m 161.0578,147.94527 a 56.71497,34.659149 0 0 1 -56.71497,34.65915 56.71497,34.659149 0 0 1 -56.714973,-34.65915 56.71497,34.659149 0 0 1 56.714973,-34.65915 56.71497,34.659149 0 0 1 56.71497,34.65915 z" /><path
           d="m 119.58552,170.25473 q -3.19426,1.84931 -6.69115,2.79078 -3.46326,0.94147 -7.22913,0.94147 -8.809457,0 -14.861755,-4.37111 -6.018675,-4.40472 -8.540465,-12.64257 h -7.296382 l 2.958901,-6.55666 h 3.29514 q -0.03362,-0.47073 -0.06725,-0.97509 0,-0.53798 0,-1.47945 0,-0.97509 0,-1.51308 0.03362,-0.53798 0.06725,-1.04234 h -6.254041 l 2.958901,-6.55665 h 4.337481 q 2.589038,-8.27148 8.574088,-12.60896 6.018675,-4.33748 14.828132,-4.33748 3.76587,0 7.22913,0.94147 3.49689,0.94147 6.69115,2.79078 v 10.38978 q -2.72353,-2.62266 -5.81693,-3.93399 -3.09339,-1.34496 -6.42216,-1.34496 -4.27023,0 -7.29638,2.08468 -2.992524,2.05106 -4.505599,6.01868 h 18.123269 l -2.89165,6.55665 H 94.199496 q -0.06725,0.53798 -0.100871,1.14321 0,0.60523 0,1.81569 0,0.43711 0,0.9751 0.03362,0.50435 0.06725,1.07596 h 14.424645 l -2.99253,6.55666 H 95.544451 q 1.681194,4.10211 4.606469,6.15317 2.9589,2.05105 7.19551,2.05105 3.32877,0 6.35492,-1.31133 3.05977,-1.34495 5.88417,-4.00124 z"
           id="text8"
           style="font-weight:bold;font-size:68.8617px;font-family:'DejaVu Sans';-inkscape-font-specification:'DejaVu Sans, Bold';letter-spacing:0px;stroke-width:1.62664;stroke-linecap:square;paint-order:stroke fill markers"
           aria-label="€" /></g></g><path
       sodipodi:nodetypes="cccccsccsccccc"
       inkscape:connector-curvature="0"
       id="path3347"
       d="m 150.09567,23.903928 -45.04639,7.635677 -21.964991,15.640946 12.732372,1.988232 12.367959,-7.457426 c 0,0 7.02382,1.405242 8.20865,2.455421 1.2291,1.089427 -3.72544,5.286223 -3.72544,5.286223 l -16.064458,6.880197 c 0,0 -4.296969,3.863953 -3.21059,5.07322 1.08638,1.209267 8.116098,0.387179 8.116098,0.387179 14.53334,-4.733909 20.9107,-8.591549 33.86434,-11.435606 l 14.2191,-7.755157 4.83033,-0.125913 z"
       style="fill:#ee1b24;fill-rule:evenodd;stroke:#000000;stroke-width:1.38855;stroke-linecap:butt;stroke-linejoin:miter;stroke-opacity:1;fill-opacity:1" /><path
       sodipodi:nodetypes="ccccc"
       inkscape:connector-curvature="0"
       id="path3349"
       d="m 178.07677,38.542285 -2.47584,-18.870724 -25.70773,3.613953 3.81213,18.785995 z"
       style="fill:#ee1b24;fill-rule:evenodd;stroke:#000000;stroke-width:2.77711;stroke-linecap:butt;stroke-linejoin:miter;stroke-opacity:1;fill-opacity:1" /><path
       style="fill:#000000;stroke-width:2.1811;stroke-linecap:round;stroke-linejoin:round;paint-order:stroke fill markers"
       d="m 57.636824,85.559656 62.657096,-0.0216"
       id="path6" /><rect
       style="fill:#ee1b24;stroke-width:0.943126;stroke-linecap:round;stroke-linejoin:round;paint-order:stroke fill markers;fill-opacity:1"
       id="rect20"
       width="32.93531"
       height="1.1144252"
       x="63.77647"
       y="88.160927"
       ry="0.0011041603" /><rect
       style="fill:#000000;fill-opacity:1;stroke-width:2.1811;stroke-linecap:round;stroke-linejoin:round;paint-order:stroke fill markers"
       id="rect21"
       width="32.287792"
       height="6.9413686"
       x="63.679989"
       y="89.275352"
       ry="0.003702743" /><text
       xml:space="preserve"
       style="font-style:normal;font-variant:normal;font-weight:normal;font-stretch:normal;font-size:34.0713px;font-family:Impact;-inkscape-font-specification:'Impact, @wght=700';font-variant-ligatures:normal;font-variant-caps:normal;font-variant-numeric:normal;font-variant-east-asian:normal;font-variation-settings:'wght' 700;text-align:center;letter-spacing:0px;writing-mode:lr-tb;direction:ltr;text-anchor:middle;fill:#000000;fill-opacity:1;stroke-width:1.02281;stroke-linecap:round;stroke-linejoin:round;paint-order:stroke fill markers"
       x="104.55709"
       y="202.41721"
       id="text21"><tspan
         sodipodi:role="line"
         id="tspan23"
         x="104.55709"
         y="202.41721"
         style="stroke-width:1.02281;fill:#000000;-inkscape-font-specification:'Impact, @wght=700';font-family:Impact;font-weight:normal;font-style:normal;font-stretch:normal;font-variant:normal;font-variation-settings:'wght' 700;font-size:34.0713013px;font-variant-ligatures:normal;font-variant-caps:normal;font-variant-numeric:normal;font-variant-east-asian:normal">PROTESTONS</tspan><tspan
         sodipodi:role="line"
         id="tspan24"
         x="104.55709"
         y="245.00633"
         style="stroke-width:1.02281;fill:#000000;-inkscape-font-specification:'Impact, @wght=700';font-family:Impact;font-weight:normal;font-style:normal;font-stretch:normal;font-variant:normal;font-variation-settings:'wght' 700;font-size:34.0713013px;font-variant-ligatures:normal;font-variant-caps:normal;font-variant-numeric:normal;font-variant-east-asian:normal">AVEC NOS</tspan><tspan
         sodipodi:role="line"
         id="tspan25"
         x="104.55709"
         y="287.59543"
         style="stroke-width:1.02281;fill:#000000;-inkscape-font-specification:'Impact, @wght=700';font-family:Impact;font-weight:normal;font-style:normal;font-stretch:normal;font-variant:normal;font-variation-settings:'wght' 700;font-size:34.0713013px;font-variant-ligatures:normal;font-variant-caps:normal;font-variant-numeric:normal;font-variant-east-asian:normal">BILLETS</tspan></text></g></svg>
