<?xml version="1.0" encoding="UTF-8" standalone="no"?>
<!-- Created with Inkscape (http://www.inkscape.org/) -->

<svg
   width="210mm"
   height="297mm"
   viewBox="0 0 210 297"
   version="1.1"
   id="svg1"
   xml:space="preserve"
   inkscape:version="1.4.2 (ebf0e940d0, 2025-05-08)"
   sodipodi:docname="population-fist-raised.svg"
   inkscape:export-filename="population-fist-raised.png"
   inkscape:export-xdpi="96"
   inkscape:export-ydpi="96"
   xmlns:inkscape="http://www.inkscape.org/namespaces/inkscape"
   xmlns:sodipodi="http://sodipodi.sourceforge.net/DTD/sodipodi-0.dtd"
   xmlns:xlink="http://www.w3.org/1999/xlink"
   xmlns="http://www.w3.org/2000/svg"
   xmlns:svg="http://www.w3.org/2000/svg"><sodipodi:namedview
     id="namedview1"
     pagecolor="#ffffff"
     bordercolor="#000000"
     borderopacity="0.25"
     inkscape:showpageshadow="2"
     inkscape:pageopacity="0.0"
     inkscape:pagecheckerboard="0"
     inkscape:deskcolor="#d1d1d1"
     inkscape:document-units="mm"
     inkscape:zoom="0.5872393"
     inkscape:cx="458.07561"
     inkscape:cy="544.07121"
     inkscape:window-width="1920"
     inkscape:window-height="1080"
     inkscape:window-x="0"
     inkscape:window-y="0"
     inkscape:window-maximized="1"
     inkscape:current-layer="layer1" /><defs
     id="defs1"><marker
       style="overflow:visible"
       id="ConcaveTriangle"
       refX="0"
       refY="0"
       orient="auto-start-reverse"
       inkscape:stockid="Concave triangle arrow"
       markerWidth="1"
       markerHeight="1"
       viewBox="0 0 1 1"
       inkscape:isstock="true"
       inkscape:collect="always"
       preserveAspectRatio="xMidYMid"><path
         transform="scale(0.7)"
         d="M -2,-4 9,0 -2,4 c 2,-2.33 2,-5.66 0,-8 z"
         style="fill:context-stroke;fill-rule:evenodd;stroke:none"
         id="path7" /></marker><inkscape:path-effect
       effect="fillet_chamfer"
       id="path-effect9"
       is_visible="true"
       lpeversion="1"
       nodesatellites_param="F,0,0,1,0,0,0,1 @ F,0,0,1,0,0,0,1"
       radius="0"
       unit="px"
       method="auto"
       mode="F"
       chamfer_steps="1"
       flexible="false"
       use_knot_distance="true"
       apply_no_radius="true"
       apply_with_radius="true"
       only_selected="false"
       hide_knots="false" /><g
       id="s-7"><g
         id="c"><path
           id="t"
           d="M0,0v1h0.5z"
           transform="translate(0,-1)rotate(18)" /><use
           xlink:href="#t"
           transform="scale(-1,1)"
           id="use1" /></g><g
         id="a"><use
           xlink:href="#c"
           transform="rotate(72)"
           id="use2" /><use
           xlink:href="#c"
           transform="rotate(144)"
           id="use3-8" /></g><use
         xlink:href="#a"
         transform="scale(-1,1)"
         id="use4-6" /></g><marker
       style="overflow:visible"
       id="marker9-6"
       refX="0"
       refY="0"
       orient="auto-start-reverse"
       inkscape:stockid="Concave triangle arrow"
       markerWidth="1"
       markerHeight="1"
       viewBox="0 0 1 1"
       inkscape:isstock="true"
       inkscape:collect="always"
       preserveAspectRatio="xMidYMid"><path
         transform="scale(0.7)"
         d="M -2,-4 9,0 -2,4 c 2,-2.33 2,-5.66 0,-8 z"
         style="fill:context-stroke;fill-rule:evenodd;stroke:none"
         id="path9-6" /></marker></defs><g
     inkscape:label="Calque 1"
     inkscape:groupmode="layer"
     id="layer1"><rect
       style="fill:#ee1b24;fill-opacity:1;stroke-width:5;stroke-linecap:round;stroke-linejoin:round;paint-order:stroke fill markers;stroke-dasharray:none"
       id="rect2"
       width="210"
       height="297"
       x="0"
       y="0" /><g
       id="g1"
       transform="matrix(0.83421474,0,0,0.83421474,23.826174,-9.4067258)"><g
         inkscape:label="Calque 1"
         id="layer1-5"
         transform="matrix(0.05920615,-0.07429847,0.07429847,0.05920615,95.562847,105.79519)"><rect
           style="fill:#86bc76;fill-opacity:1;stroke:#152211;stroke-width:13.3547;stroke-linecap:square;stroke-dasharray:none;stroke-opacity:1;paint-order:stroke fill markers"
           id="rect1"
           width="172.04771"
           height="270.89429"
           x="18.319033"
           y="12.4982"
           ry="0"
           rx="0" /><rect
           style="fill:#86bc76;fill-opacity:1;stroke:#152211;stroke-width:8.01285;stroke-linecap:square;stroke-linejoin:miter;stroke-dasharray:none;stroke-dashoffset:0;stroke-opacity:1;paint-order:stroke fill markers"
           id="rect1-9"
           width="127.26841"
           height="226.11494"
           x="40.70866"
           y="34.887821"
           ry="0"
           rx="0" /><rect
           style="fill:#538943;fill-opacity:1;stroke:none;stroke-width:15.9301;stroke-linecap:square;stroke-linejoin:miter;stroke-dasharray:none;stroke-dashoffset:0;stroke-opacity:1;paint-order:stroke fill markers"
           id="rect8"
           width="127.26845"
           height="226.11497"
           x="40.70866"
           y="34.887821" /><path
           id="path2-43"
           style="fill:#3e6732;fill-opacity:1;stroke:#86bc76;stroke-width:8.32228;stroke-linecap:square;stroke-linejoin:miter;stroke-dasharray:none;stroke-dashoffset:0;stroke-opacity:1;paint-order:stroke fill markers"
           d="m 169.98812,247.01882 a 16.996351,16.856347 0 0 0 -16.99765,16.8577 16.996351,16.856347 0 0 0 0.007,0.65972 h 18.51348 v -17.4487 a 16.996351,16.856347 0 0 0 -1.52872,-0.0668 z" /><path
           id="path2-43-8"
           style="fill:#3e6732;fill-opacity:1;stroke:#86bc76;stroke-width:8.32228;stroke-linecap:square;stroke-linejoin:miter;stroke-dasharray:none;stroke-dashoffset:0;stroke-opacity:1;paint-order:stroke fill markers"
           d="m 169.98812,48.871747 a 16.996351,16.856347 0 0 1 -16.99765,-16.857691 16.996351,16.856347 0 0 1 0.007,-0.659724 h 18.51348 V 48.80297 a 16.996351,16.856347 0 0 1 -1.52872,0.06677 z" /><path
           id="path2-43-8-4"
           style="fill:#3e6732;fill-opacity:1;stroke:#86bc76;stroke-width:8.32228;stroke-linecap:square;stroke-linejoin:miter;stroke-dasharray:none;stroke-dashoffset:0;stroke-opacity:1;paint-order:stroke fill markers"
           d="m 38.697656,247.01882 a 16.996351,16.856347 0 0 1 16.997715,16.8577 16.996351,16.856347 0 0 1 -0.0067,0.65972 H 37.175215 v -17.4487 a 16.996351,16.856347 0 0 1 1.528718,-0.0668 z" /><path
           id="path2-43-8-4-8"
           style="fill:#3e6732;fill-opacity:1;stroke:#86bc76;stroke-width:8.32228;stroke-linecap:square;stroke-linejoin:miter;stroke-dasharray:none;stroke-dashoffset:0;stroke-opacity:1;paint-order:stroke fill markers"
           d="m 38.697656,48.871747 a 16.996351,16.856347 0 0 0 16.997715,-16.857691 16.996351,16.856347 0 0 0 -0.0067,-0.659724 H 37.175215 V 48.80297 a 16.996351,16.856347 0 0 0 1.528718,0.06677 z" /><ellipse
           style="fill:#ffffff;fill-opacity:1;stroke:none;stroke-width:6.89218;stroke-linecap:square;stroke-linejoin:miter;stroke-dasharray:none;stroke-dashoffset:0;stroke-opacity:1;paint-order:stroke fill markers"
           id="path8"
           cx="104.34283"
           cy="147.94527"
           rx="56.71497"
           ry="34.659149" /><text
           xml:space="preserve"
           style="font-style:normal;font-variant:normal;font-weight:bold;font-stretch:normal;font-size:68.8617px;font-family:'DejaVu Sans';-inkscape-font-specification:'DejaVu Sans, Bold';font-variant-ligatures:normal;font-variant-caps:normal;font-variant-numeric:normal;font-variant-east-asian:normal;text-align:start;letter-spacing:0px;writing-mode:lr-tb;direction:ltr;text-anchor:start;fill:#000000;fill-opacity:1;stroke:none;stroke-width:1.62664;stroke-linecap:square;stroke-linejoin:miter;stroke-dasharray:none;stroke-dashoffset:0;stroke-opacity:1;paint-order:stroke fill markers"
           x="76.277969"
           y="173.01189"
           id="text8"><tspan
             sodipodi:role="line"
             id="tspan8"
             style="font-style:normal;font-variant:normal;font-weight:bold;font-stretch:normal;font-size:68.8617px;font-family:'DejaVu Sans';-inkscape-font-specification:'DejaVu Sans, Bold';font-variant-ligatures:normal;font-variant-caps:normal;font-variant-numeric:normal;font-variant-east-asian:normal;fill:#000000;stroke-width:1.62664"
             x="76.277969"
             y="173.01189">€</tspan></text></g><g
         inkscape:label="Calque 1"
         id="layer1-5-3"
         transform="matrix(0.05920615,-0.07429847,0.07429847,0.05920615,22.645051,109.92878)"><rect
           style="fill:#86bc76;fill-opacity:1;stroke:#152211;stroke-width:13.3547;stroke-linecap:square;stroke-dasharray:none;stroke-opacity:1;paint-order:stroke fill markers"
           id="rect1-6"
           width="172.04771"
           height="270.89429"
           x="18.319033"
           y="12.4982"
           ry="0"
           rx="0" /><rect
           style="fill:#86bc76;fill-opacity:1;stroke:#152211;stroke-width:8.01285;stroke-linecap:square;stroke-linejoin:miter;stroke-dasharray:none;stroke-dashoffset:0;stroke-opacity:1;paint-order:stroke fill markers"
           id="rect1-9-1"
           width="127.26841"
           height="226.11494"
           x="40.70866"
           y="34.887821"
           ry="0"
           rx="0" /><rect
           style="fill:#538943;fill-opacity:1;stroke:none;stroke-width:15.9301;stroke-linecap:square;stroke-linejoin:miter;stroke-dasharray:none;stroke-dashoffset:0;stroke-opacity:1;paint-order:stroke fill markers"
           id="rect8-0"
           width="127.26845"
           height="226.11497"
           x="40.70866"
           y="34.887821" /><path
           id="path2-43-6"
           style="fill:#3e6732;fill-opacity:1;stroke:#86bc76;stroke-width:8.32228;stroke-linecap:square;stroke-linejoin:miter;stroke-dasharray:none;stroke-dashoffset:0;stroke-opacity:1;paint-order:stroke fill markers"
           d="m 169.98812,247.01882 a 16.996351,16.856347 0 0 0 -16.99765,16.8577 16.996351,16.856347 0 0 0 0.007,0.65972 h 18.51348 v -17.4487 a 16.996351,16.856347 0 0 0 -1.52872,-0.0668 z" /><path
           id="path2-43-8-3"
           style="fill:#3e6732;fill-opacity:1;stroke:#86bc76;stroke-width:8.32228;stroke-linecap:square;stroke-linejoin:miter;stroke-dasharray:none;stroke-dashoffset:0;stroke-opacity:1;paint-order:stroke fill markers"
           d="m 169.98812,48.871747 a 16.996351,16.856347 0 0 1 -16.99765,-16.857691 16.996351,16.856347 0 0 1 0.007,-0.659724 h 18.51348 V 48.80297 a 16.996351,16.856347 0 0 1 -1.52872,0.06677 z" /><path
           id="path2-43-8-4-2"
           style="fill:#3e6732;fill-opacity:1;stroke:#86bc76;stroke-width:8.32228;stroke-linecap:square;stroke-linejoin:miter;stroke-dasharray:none;stroke-dashoffset:0;stroke-opacity:1;paint-order:stroke fill markers"
           d="m 38.697656,247.01882 a 16.996351,16.856347 0 0 1 16.997715,16.8577 16.996351,16.856347 0 0 1 -0.0067,0.65972 H 37.175215 v -17.4487 a 16.996351,16.856347 0 0 1 1.528718,-0.0668 z" /><path
           id="path2-43-8-4-8-0"
           style="fill:#3e6732;fill-opacity:1;stroke:#86bc76;stroke-width:8.32228;stroke-linecap:square;stroke-linejoin:miter;stroke-dasharray:none;stroke-dashoffset:0;stroke-opacity:1;paint-order:stroke fill markers"
           d="m 38.697656,48.871747 a 16.996351,16.856347 0 0 0 16.997715,-16.857691 16.996351,16.856347 0 0 0 -0.0067,-0.659724 H 37.175215 V 48.80297 a 16.996351,16.856347 0 0 0 1.528718,0.06677 z" /><ellipse
           style="fill:#ffffff;fill-opacity:1;stroke:none;stroke-width:6.89218;stroke-linecap:square;stroke-linejoin:miter;stroke-dasharray:none;stroke-dashoffset:0;stroke-opacity:1;paint-order:stroke fill markers"
           id="path8-6"
           cx="104.34283"
           cy="147.94527"
           rx="56.71497"
           ry="34.659149" /><text
           xml:space="preserve"
           style="font-style:normal;font-variant:normal;font-weight:bold;font-stretch:normal;font-size:68.8617px;font-family:'DejaVu Sans';-inkscape-font-specification:'DejaVu Sans, Bold';font-variant-ligatures:normal;font-variant-caps:normal;font-variant-numeric:normal;font-variant-east-asian:normal;text-align:start;letter-spacing:0px;writing-mode:lr-tb;direction:ltr;text-anchor:start;fill:#000000;fill-opacity:1;stroke:none;stroke-width:1.62664;stroke-linecap:square;stroke-linejoin:miter;stroke-dasharray:none;stroke-dashoffset:0;stroke-opacity:1;paint-order:stroke fill markers"
           x="76.277969"
           y="173.01189"
           id="text8-1"><tspan
             sodipodi:role="line"
             id="tspan8-5"
             style="font-style:normal;font-variant:normal;font-weight:bold;font-stretch:normal;font-size:68.8617px;font-family:'DejaVu Sans';-inkscape-font-specification:'DejaVu Sans, Bold';font-variant-ligatures:normal;font-variant-caps:normal;font-variant-numeric:normal;font-variant-east-asian:normal;fill:#000000;stroke-width:1.62664"
             x="76.277969"
             y="173.01189">€</tspan></text></g><g
         inkscape:label="Calque 1"
         id="layer1-5-9"
         transform="matrix(0.04355412,-0.08443145,0.08443145,0.04355412,127.43576,153.41495)"><rect
           style="fill:#86bc76;fill-opacity:1;stroke:#152211;stroke-width:13.3547;stroke-linecap:square;stroke-dasharray:none;stroke-opacity:1;paint-order:stroke fill markers"
           id="rect1-7"
           width="172.04771"
           height="270.89429"
           x="18.319033"
           y="12.4982"
           ry="0"
           rx="0" /><rect
           style="fill:#86bc76;fill-opacity:1;stroke:#152211;stroke-width:8.01285;stroke-linecap:square;stroke-linejoin:miter;stroke-dasharray:none;stroke-dashoffset:0;stroke-opacity:1;paint-order:stroke fill markers"
           id="rect1-9-3"
           width="127.26841"
           height="226.11494"
           x="40.70866"
           y="34.887821"
           ry="0"
           rx="0" /><rect
           style="fill:#538943;fill-opacity:1;stroke:none;stroke-width:15.9301;stroke-linecap:square;stroke-linejoin:miter;stroke-dasharray:none;stroke-dashoffset:0;stroke-opacity:1;paint-order:stroke fill markers"
           id="rect8-6"
           width="127.26845"
           height="226.11497"
           x="40.70866"
           y="34.887821" /><path
           id="path2-43-1"
           style="fill:#3e6732;fill-opacity:1;stroke:#86bc76;stroke-width:8.32228;stroke-linecap:square;stroke-linejoin:miter;stroke-dasharray:none;stroke-dashoffset:0;stroke-opacity:1;paint-order:stroke fill markers"
           d="m 169.98812,247.01882 a 16.996351,16.856347 0 0 0 -16.99765,16.8577 16.996351,16.856347 0 0 0 0.007,0.65972 h 18.51348 v -17.4487 a 16.996351,16.856347 0 0 0 -1.52872,-0.0668 z" /><path
           id="path2-43-8-2"
           style="fill:#3e6732;fill-opacity:1;stroke:#86bc76;stroke-width:8.32228;stroke-linecap:square;stroke-linejoin:miter;stroke-dasharray:none;stroke-dashoffset:0;stroke-opacity:1;paint-order:stroke fill markers"
           d="m 169.98812,48.871747 a 16.996351,16.856347 0 0 1 -16.99765,-16.857691 16.996351,16.856347 0 0 1 0.007,-0.659724 h 18.51348 V 48.80297 a 16.996351,16.856347 0 0 1 -1.52872,0.06677 z" /><path
           id="path2-43-8-4-9"
           style="fill:#3e6732;fill-opacity:1;stroke:#86bc76;stroke-width:8.32228;stroke-linecap:square;stroke-linejoin:miter;stroke-dasharray:none;stroke-dashoffset:0;stroke-opacity:1;paint-order:stroke fill markers"
           d="m 38.697656,247.01882 a 16.996351,16.856347 0 0 1 16.997715,16.8577 16.996351,16.856347 0 0 1 -0.0067,0.65972 H 37.175215 v -17.4487 a 16.996351,16.856347 0 0 1 1.528718,-0.0668 z" /><path
           id="path2-43-8-4-8-3"
           style="fill:#3e6732;fill-opacity:1;stroke:#86bc76;stroke-width:8.32228;stroke-linecap:square;stroke-linejoin:miter;stroke-dasharray:none;stroke-dashoffset:0;stroke-opacity:1;paint-order:stroke fill markers"
           d="m 38.697656,48.871747 a 16.996351,16.856347 0 0 0 16.997715,-16.857691 16.996351,16.856347 0 0 0 -0.0067,-0.659724 H 37.175215 V 48.80297 a 16.996351,16.856347 0 0 0 1.528718,0.06677 z" /><ellipse
           style="fill:#ffffff;fill-opacity:1;stroke:none;stroke-width:6.89218;stroke-linecap:square;stroke-linejoin:miter;stroke-dasharray:none;stroke-dashoffset:0;stroke-opacity:1;paint-order:stroke fill markers"
           id="path8-1"
           cx="104.34283"
           cy="147.94527"
           rx="56.71497"
           ry="34.659149" /><text
           xml:space="preserve"
           style="font-style:normal;font-variant:normal;font-weight:bold;font-stretch:normal;font-size:68.8617px;font-family:'DejaVu Sans';-inkscape-font-specification:'DejaVu Sans, Bold';font-variant-ligatures:normal;font-variant-caps:normal;font-variant-numeric:normal;font-variant-east-asian:normal;text-align:start;letter-spacing:0px;writing-mode:lr-tb;direction:ltr;text-anchor:start;fill:#000000;fill-opacity:1;stroke:none;stroke-width:1.62664;stroke-linecap:square;stroke-linejoin:miter;stroke-dasharray:none;stroke-dashoffset:0;stroke-opacity:1;paint-order:stroke fill markers"
           x="76.277969"
           y="173.01189"
           id="text8-9"><tspan
             sodipodi:role="line"
             id="tspan8-4"
             style="font-style:normal;font-variant:normal;font-weight:bold;font-stretch:normal;font-size:68.8617px;font-family:'DejaVu Sans';-inkscape-font-specification:'DejaVu Sans, Bold';font-variant-ligatures:normal;font-variant-caps:normal;font-variant-numeric:normal;font-variant-east-asian:normal;fill:#000000;stroke-width:1.62664"
             x="76.277969"
             y="173.01189">€</tspan></text></g><path
         style="fill:#000000"
         d="m 2.2215891,216.70693 c 1.0614793,-1.64635 2.9880225,-0.96124 3.2524525,-0.96124 0.0543,0 0.0987,-9.82266 0.0987,-21.82813 v -21.82811 h 1.19063 1.19062 v -2.11667 c 0,-2.08139 0.011,-2.11667 0.66146,-2.11667 0.63516,0 0.6614,-0.0657 0.65998,-1.65364 -0.002,-2.32071 -0.33946,-3.2983 -1.85891,-5.38617 -3.94777,-5.42464 -8.07422999,-12.13397 -8.36302999,-13.59769 -0.14370001,-0.72832 3.21704999,-10.87201 3.99584999,-12.06062 0.39522,-0.60319 0.5977,-0.68344 1.43947,-0.57053 0.53875,0.0723 2.87827,0.96029 5.19893,1.97339 2.3206604,1.0131 5.0867904,2.17069 6.1469604,2.57242 1.48348,0.56214 1.8995,0.83095 1.80569,1.16674 -0.067,0.23997 -0.1961,0.80653 -0.28679,1.25902 -0.17008,0.84858 -1.12361,1.9127 -2.22051,2.47805 -0.98313,0.50671 -4.2577,0.37609 -6.5257204,-0.26032 -2.81801,-0.79073 -2.7674,-0.48714 0.0644,0.38625 3.6069604,1.11246 6.6323304,2.92113 9.0179304,5.39123 0.47969,0.49668 0.92947,0.84574 0.99952,0.77569 0.2365,-0.2365 -2.2012,-2.72176 -3.83807,-3.91295 l -1.62525,-1.18274 1.10255,-0.1905 c 0.6064,-0.10478 1.39509,-0.38218 1.75263,-0.61645 0.74627,-0.48898 0.71474,-0.50525 1.05137,0.54237 0.37569,1.16915 1.73693,1.98437 3.31349,1.98437 1.56655,0 2.1946,-0.30238 2.84318,-1.36889 0.48468,-0.797 0.49353,-0.79959 0.79648,-0.23354 0.86517,1.61658 3.8158,2.14895 5.24504,0.94633 0.94078,-0.79162 1.22472,-1.44404 1.902278,-4.37098 l 0.52062,-2.24896 -0.11506,2.24896 c -0.0633,1.23693 -0.22889,5.04693 -0.36803,8.46666 -0.38835,9.54288 -0.983158,12.11621 -3.127498,13.53008 -0.70414,0.46428 -0.71167,0.48944 -0.14686,0.4911 0.55613,0.002 0.59532,0.11495 0.59532,1.72153 0,1.35232 0.0848,1.71979 0.39687,1.71979 0.31971,0 0.39688,0.41158 0.39688,2.11667 v 2.11667 h 1.05833 1.058328 v 14.19929 c 0,7.80962 0.0558,14.14349 0.12403,14.07528 0.12862,-0.12862 5.80711,-29.44964 8.5759,-44.28186 2.33522,-12.50962 3.01803,-16.7231 3.04425,-18.78542 0.0218,-1.71234 -0.0786,-2.06171 -1.32966,-4.63021 -2.62509,-5.38933 -5.38743,-12.701 -5.38743,-14.26006 0,-1.12659 5.7231,-11.192 6.64386,-11.68477 0.30204,-0.16165 0.8131,-0.22767 1.13568,-0.14671 0.32258,0.081 3.19876,1.89509 6.3915,4.03138 5.20666,3.48382 5.79905,3.95419 5.74726,4.56344 -0.0846,0.99461 -0.8734,1.93588 -2.2067,2.63311 -1.69494,0.88633 -3.5646,0.65146 -6.9697,-0.87554 -2.65004,-1.18839 -3.93969,-1.51191 -1.56145,-0.3917 3.64408,1.71645 6.82473,4.37753 9.00246,7.53189 0.58219,0.84328 0.84384,1.0831 0.72167,0.66146 -0.26936,-0.92962 -1.58609,-2.80084 -3.1099,-4.41948 l -1.2961,-1.37676 0.9334,0.15147 c 0.53955,0.0876 1.42607,-0.0164 2.1009,-0.24633 1.16075,-0.3955 1.16682,-0.39436 1.05336,0.19916 -0.30166,1.57803 1.65148,3.31069 3.73196,3.31069 0.97418,0 1.39533,-0.15543 2.08091,-0.768 l 0.85955,-0.768 0.53369,0.93889 c 1.01999,1.79442 3.39178,2.43388 5.11979,1.38036 0.67438,-0.41115 1.18856,-1.17365 2.18493,-3.24015 1.47931,-3.06813 1.51039,-2.48633 0.10337,1.93507 -0.48753,1.532 -1.25993,4.62763 -1.71646,6.87917 -1.46484,7.22444 -2.95325,10.7285 -5.02176,11.82235 -0.63544,0.33603 -0.93321,0.60573 -0.66877,0.60573 0.58352,0 0.59254,-0.13748 -0.91153,13.89062 -2.72839,25.44698 -4.9036,44.13174 -6.24398,53.63484 -0.36986,2.62227 -0.63682,4.78358 -0.59323,4.80292 3.77913,1.67628 6.80241,3.90777 8.78492,6.48419 1.1816,1.53558 3.4851,5.53262 2.8035,5.52329 -42.907476,-0.58712 -40.236603,-0.13619 -63.7498824,0 0,0 -0.7303838,-7.92487 -0.1905685,-8.76213 z m 64.4761609,8.76208 c 0.16975,-1.75084 1.30018,-10.58558 1.36125,-10.63866 0.0482,-0.0418 0.91305,0.0259 1.92199,0.15059 1.00894,0.12466 1.86205,0.19888 1.89581,0.16492 0.0839,-0.0844 3.06,-25.37996 4.19418,-35.6482 1.01354,-9.17607 1.73286,-16.58582 1.73286,-17.85029 0,-0.53042 -0.75086,-2.16338 -2.13665,-4.64678 -2.23818,-4.01092 -4.51512,-8.77002 -5.53254,-11.56372 -0.52944,-1.45379 -0.56017,-1.7518 -0.25919,-2.51354 0.75724,-1.91646 4.79193,-10.12555 5.19612,-10.57217 0.78007,-0.86197 1.71654,-0.54937 6.18761,2.06544 2.39242,1.39916 5.10438,2.91721 6.02657,3.37344 1.65357,0.81806 1.67466,0.8422 1.52826,1.74934 -0.51368,3.18296 -4.22924,4.0706 -8.99358,2.14856 -1.14645,-0.46251 -2.21801,-0.79632 -2.38125,-0.74181 -0.16325,0.0545 0.39033,0.35626 1.23016,0.67058 0.83983,0.31431 2.09248,0.85805 2.78367,1.2083 1.29061,0.65401 5.07271,3.48527 5.09393,3.81329 0.007,0.10083 0.5575,0.77864 1.2244,1.50625 l 1.21255,1.32291 -0.61479,-1.13003 c -0.33813,-0.62152 -1.47174,-1.96097 -2.51912,-2.97656 l -1.90433,-1.84653 h 1.03863 c 0.57125,0 1.45153,-0.17252 1.95617,-0.38338 0.8845,-0.36956 0.91789,-0.36242 0.92692,0.19844 0.0259,1.60579 1.57947,2.82644 3.60067,2.82903 1.15133,10e-4 1.49331,-0.12178 2.21912,-0.79979 0.47193,-0.44085 0.88511,-0.76827 0.91819,-0.72761 0.0331,0.0407 0.20293,0.34819 0.37745,0.6834 0.49647,0.9536 1.84852,1.63739 3.23979,1.6385 1.73606,0.001 2.62789,-0.81581 3.5426,-3.24613 0.39585,-1.05174 0.87022,-2.26944 1.05416,-2.706 l 0.33443,-0.79375 -0.13769,1.05833 c -0.0757,0.58208 -0.41424,2.24896 -0.75223,3.70417 -0.33799,1.4552 -0.74955,3.65786 -0.91457,4.89479 -1.27204,9.53437 -2.32577,12.74931 -4.56919,13.94059 -0.65506,0.34784 -0.74515,0.47546 -0.38929,0.55144 0.59281,0.12656 0.60217,-0.10451 -0.33214,8.20317 -3.94695,35.09547 -4.9863,44.62319 -4.88559,44.78614 0.0643,0.104 1.0227,0.27398 2.12983,0.37772 l 2.01297,0.18863 -0.14188,0.835 c -0.078,0.45925 -0.28833,2.17446 -0.46731,3.81157 l -0.32542,2.97656 H 80.53631 c -7.61473,0 -13.84208,-0.0298 -13.83856,-0.0661 z m 28.97792,-1.01477 c 3.28863,-3.3988 8.54215,-6.33133 13.62654,-7.60637 l 3.02976,-0.75979 0.0687,-0.89885 c 0.0378,-0.49438 0.59604,-9.94761 1.24053,-21.0072 0.64448,-11.05958 1.56281,-26.80014 2.04071,-34.97904 l 0.86893,-14.87072 1.19784,-0.0782 1.19784,-0.0782 0.13229,-1.98438 c 0.1287,-1.93053 0.15204,-1.98665 0.8599,-2.06809 0.72591,-0.0835 0.7276,-0.0886 0.7276,-2.19336 0,-2.42337 -0.15503,-2.80509 -2.7539,-6.78068 -2.71296,-4.15013 -6.50652,-11.38598 -6.50652,-12.41058 0,-0.40386 2.66326,-7.15073 3.90192,-9.88479 0.93775,-2.06986 1.39026,-2.50122 2.3785,-2.26731 0.40207,0.0952 3.44033,1.50745 6.75167,3.1384 l 6.02063,2.96537 -0.1474,0.92604 c -0.50762,3.18921 -3.95336,4.14317 -8.91729,2.46879 -1.27331,-0.4295 -2.31511,-0.694 -2.31511,-0.58778 0,0.10622 0.62508,0.39622 1.38906,0.64445 2.9681,0.96436 5.98726,2.76955 8.34233,4.98799 2.15797,2.03276 2.23074,2.07764 1.40447,0.86608 -0.47928,-0.70277 -1.69929,-1.95293 -2.71112,-2.77813 l -1.8397,-1.50036 1.27154,-0.14233 c 0.69935,-0.0783 1.53161,-0.28665 1.84946,-0.46302 0.79087,-0.43885 0.87729,-0.41108 0.87729,0.2819 0,1.42868 1.59403,2.57241 3.5852,2.57241 1.0554,0 1.36307,-0.13285 2.16508,-0.93486 0.51418,-0.51417 0.95502,-0.90113 0.97966,-0.85989 0.7004,1.17196 1.11616,1.55254 2.1112,1.93255 1.60545,0.61313 2.80036,0.3659 3.81459,-0.78925 0.72667,-0.82764 1.01163,-1.55852 1.9123,-4.9048 0.59988,-2.22876 0.54493,-0.582 -0.11628,3.48458 -0.36272,2.23083 -0.73565,5.36573 -0.82873,6.96646 -0.37311,6.41681 -1.32263,10.10385 -3.04914,11.84011 -0.54264,0.5457 -0.82651,0.99219 -0.63083,0.99219 0.27829,0 0.32052,0.37779 0.19385,1.7342 -0.14535,1.55659 -0.11046,1.7476 0.34069,1.86497 0.45025,0.11713 0.49363,0.34996 0.41633,2.23454 l -0.0863,2.10378 h 0.94619 c 0.94001,0 0.94618,0.008 0.94618,1.14956 0,0.63226 -0.11969,2.98375 -0.26599,5.22552 -0.14629,2.24178 -0.86243,14.37487 -1.59142,26.96241 -0.72899,12.58755 -1.55137,26.63693 -1.82751,31.22084 -0.27614,4.5839 -0.46034,8.3766 -0.40934,8.42822 0.051,0.0516 1.09949,-0.57602 2.32998,-1.39476 2.89571,-1.92674 6.48728,-3.41358 9.96637,-4.12589 2.24228,-0.45909 3.47986,-0.55194 6.41632,-0.48142 3.213,0.0772 3.63817,0.0373 3.63802,-0.34114 -1.6e-4,-0.39472 -1.37946,-7.00183 -4.37557,-20.95975 -0.65089,-3.0323 -1.12464,-5.60842 -1.05278,-5.72469 0.0719,-0.11628 0.5487,-0.28984 1.05963,-0.38569 1.07279,-0.20126 1.12148,-0.45646 0.54632,-2.86318 -0.36308,-1.51924 -0.36253,-1.52256 0.27401,-1.68232 0.77938,-0.19562 0.78156,-0.28479 0.066,-2.69908 l -0.57349,-1.93491 -3.58909,-3.35675 c -3.79996,-3.55398 -7.81545,-7.72354 -9.03359,-9.3802 -0.56956,-0.7746 -0.70919,-1.21625 -0.62735,-1.98437 0.53578,-5.02919 1.24783,-10.40981 1.4722,-11.12474 0.45551,-1.45144 1.02191,-1.49479 6.13611,-0.4697 2.49594,0.50029 5.31199,1.04029 6.25787,1.19999 0.94589,0.15971 1.97452,0.34615 2.28584,0.41433 1.29197,0.28291 0.90882,3.03145 -0.60826,4.36346 -1.26126,1.10741 -2.70113,1.43765 -6.1755,1.41638 -2.80689,-0.0172 -3.0775,0.32692 -0.31681,0.40283 2.76537,0.076 7.24914,1.63243 10.1064,3.5081 0.7618,0.50008 0.85565,0.51946 0.52916,0.10925 -0.57035,-0.71661 -3.021,-2.23705 -4.71945,-2.92805 l -1.45722,-0.59287 1.17568,-0.52006 c 0.64663,-0.28603 1.40174,-0.74611 1.67802,-1.02239 0.33615,-0.33615 0.53707,-0.39809 0.60736,-0.18724 0.51407,1.54221 2.44093,2.43058 4.22811,1.94934 1.10374,-0.2972 2.45625,-1.55787 2.45625,-2.28945 0,-0.52294 0.26196,-0.47128 0.96651,0.1906 0.82553,0.77555 2.88847,0.96499 4.03755,0.37077 1.3206,-0.68291 1.85773,-2.15098 1.89204,-5.17128 0.0361,-3.1743 0.33923,-2.32 0.76777,2.16346 0.1714,1.79328 0.66869,4.92737 1.10509,6.96467 0.90666,4.23263 1.25075,8.91775 0.78126,10.63744 -0.16705,0.61185 -0.59979,1.46431 -0.96165,1.89436 -0.56275,0.6688 -0.58645,0.76322 -0.16384,0.6527 0.41995,-0.10982 0.54155,0.11209 0.81049,1.47907 0.24733,1.25713 0.42069,1.60829 0.79399,1.60829 0.38247,0 0.56864,0.42145 0.93481,2.11617 0.49214,2.27775 0.43651,2.2333 2.15603,1.72298 0.17358,-0.0515 0.61839,1.45329 1.12102,3.79242 0.7502,3.49125 2.45635,11.51303 7.0853,33.3127 0.84203,3.96544 2.05916,8.26691 1.9595,8.26817 -5.69047,0.0719 -15.53434,0 -15.53434,0 H 94.62978 Z m 66.32625,-67.35865 c -0.18496,-0.0744 -0.54099,-0.51151 -0.79117,-0.9713 -0.37885,-0.69628 -0.47027,-1.75706 -0.547,-6.34713 -0.0507,-3.03112 -0.0207,-5.79589 0.0667,-6.14392 0.23362,-0.93083 1.08327,-1.25394 3.17884,-1.20888 2.91217,0.0626 2.88117,-0.014 2.74217,6.77852 -0.12161,5.94305 -0.28803,6.74319 -1.59247,7.65685 -0.55897,0.39153 -2.33047,0.5282 -3.05706,0.23586 z m 6.8238,-1.48568 c -1.15842,-0.58613 -1.32004,-1.31987 -1.32423,-6.0119 -0.004,-4.35169 0.21392,-5.98728 0.85116,-6.39175 0.18456,-0.11714 1.12078,-0.21481 2.0805,-0.21704 2.72758,-0.006 2.75298,0.0482 2.75298,5.91163 0,4.26131 -0.0569,4.89391 -0.50675,5.6373 -0.8148,1.34637 -2.42555,1.79435 -3.85366,1.07176 z m -12.57292,-5.70759 -2.38125,-0.43486 0.0688,-3.15931 c 0.0927,-4.25972 0.231,-4.47077 2.84248,-4.3389 2.97158,0.15006 3.04186,0.26006 3.04186,4.7611 0,4.25012 0.39776,3.8969 -3.57187,3.17197 z m -6.44824,-1.18544 -2.74407,-0.55323 0.1826,-2.48762 c 0.29687,-4.04429 0.59647,-4.39475 3.46214,-4.04976 2.4671,0.29702 2.55333,0.45099 2.45305,4.3801 -0.0465,1.82283 -0.19212,3.17672 -0.34506,3.2086 -0.14552,0.0303 -1.49942,-0.19381 -3.00866,-0.49809 z M 18.794482,145.98332 c -0.3598,-0.24279 -0.69436,-0.47148 -0.74347,-0.5082 -0.0491,-0.0367 -0.19146,-0.51984 -0.31635,-1.07359 -0.17745,-0.78678 0.004,-2.13573 0.83126,-6.17252 1.30097,-6.35002 1.20062,-6.01826 1.97355,-6.5247 0.58529,-0.3835 0.79702,-0.38019 2.50846,0.0392 2.46556,0.60421 2.84399,1.11888 2.39062,3.25128 -1.00063,4.70642 -2.23082,9.32446 -2.6812,10.06506 -0.82305,1.35339 -2.6833,1.78688 -3.96287,0.92345 z m 6.72301,-0.0635 c -0.4537,-0.27665 -0.90244,-0.81195 -0.99722,-1.18956 -0.29686,-1.18282 1.66728,-9.97793 2.41345,-10.80702 0.47873,-0.53192 1.33871,-0.58345 2.84824,-0.17066 2.217078,0.60626 2.347368,1.17065 1.352338,5.85823 -0.961258,4.52854 -1.200168,5.24732 -2.014898,6.06205 -0.91072,0.91073 -2.35139,1.0095 -3.60191,0.24696 z m 71.012268,0.0926 c -1.61116,-0.87434 -1.61715,-1.706 -0.0449,-6.22548 2.29601,-6.5998 2.41671,-6.74099 4.95191,-5.79245 0.88907,0.33264 1.69611,0.83831 1.94557,1.21902 0.40426,0.61699 0.36957,0.82609 -0.67209,4.05023 -1.3775,4.26364 -2.03455,5.75436 -2.88283,6.54051 -0.78076,0.72358 -2.18464,0.8122 -3.2977,0.20817 z m -7.09301,-1.10892 c -0.62972,-0.56508 -0.81841,-0.96401 -0.84472,-1.78594 -0.0427,-1.33465 3.14577,-11.15584 3.85063,-11.86069 0.61684,-0.61684 1.54235,-0.5057 3.68358,0.44235 1.92222,0.85109 1.93177,1.02676 0.31281,5.75331 -1.7468,5.09976 -2.79483,7.25232 -3.77866,7.76107 -1.21694,0.62931 -2.29199,0.5259 -3.22364,-0.3101 z m -74.868328,-7.17358 c -2.88367,-1.1385 -2.72948,-0.73957 -1.82155,-4.71288 0.6581,-2.88 1.20335,-3.63706 2.44168,-3.39017 2.02089,0.40291 3.39299,0.99547 3.6595,1.5804 0.33198,0.7286 -1.00682,7.55395 -1.47698,7.52984 -0.15901,-0.008 -1.4202,-0.46139 -2.80265,-1.00719 z m 71.768228,-1.38517 c -1.34606,-0.73461 -2.44739,-1.49134 -2.44739,-1.68163 0,-0.6383 1.88535,-5.56311 2.30903,-6.03149 0.54291,-0.60021 1.06862,-0.58372 2.7744,0.0871 1.68253,0.66162 2.3249,1.19707 2.3249,1.93794 0,0.71166 -2.10336,7.03912 -2.33702,7.03038 -0.0971,-0.004 -1.27785,-0.60764 -2.62392,-1.34225 z M 8.3703616,135.14264 c -1.4444,-0.6369 -2.66926,-1.20108 -2.72191,-1.25373 -0.19148,-0.19148 1.54163,-5.18334 1.93678,-5.57848 0.51851,-0.51851 1.26914,-0.51353 2.9011604,0.0193 2.22468,0.72626 2.28274,0.89924 1.52052,4.53017 -0.35953,1.71267 -0.73394,3.18749 -0.83203,3.27737 -0.0981,0.0899 -1.3601204,-0.35769 -2.8045204,-0.99459 z M 80.45159,133.05482 c -1.3814,-0.78934 -2.54413,-1.53264 -2.58384,-1.65178 -0.11775,-0.35324 1.7083,-4.37447 2.27977,-5.02037 0.67495,-0.76288 1.2243,-0.74952 3.02202,0.0735 2.23522,1.02332 2.26432,1.10204 1.39478,3.77212 -0.40945,1.25727 -0.9372,2.73049 -1.17278,3.27383 l -0.42832,0.98787 z m -15.87678,-10.2105 c -1.16837,-0.4659 -1.85222,-1.31142 -1.85222,-2.29012 0,-0.88045 1.91377,-5.7671 3.45187,-8.81406 1.00298,-1.98689 1.57756,-2.13563 3.77033,-0.97598 1.41926,0.75058 1.65222,0.97975 1.7217,1.69374 0.0875,0.89869 -1.29468,4.66564 -2.75502,7.50866 -1.11213,2.16511 -1.42783,2.55889 -2.32506,2.90002 -0.86261,0.32796 -1.14103,0.32488 -2.0116,-0.0223 z m -7.01159,-1.32115 c -2.32664,-1.34524 -2.29136,-2.07957 0.41626,-8.66469 1.17483,-2.85727 2.32438,-5.4034 2.55455,-5.65806 0.61682,-0.68246 1.63448,-0.56826 3.53657,0.39687 1.40925,0.71506 1.70909,0.9855 1.78016,1.60557 0.15283,1.3334 -4.00993,10.55405 -5.31204,11.76637 -0.76682,0.71393 -2.22824,0.986 -2.9755,0.55394 z m 80.32134,-2.50617 c -1.01992,-0.85821 -1.03871,-1.52037 -0.13818,-4.87127 1.7628,-6.55947 2.36244,-7.64782 3.99247,-7.24639 1.51864,0.374 2.9605,1.13445 3.12326,1.64726 0.18073,0.56945 -0.79276,4.75614 -1.87032,8.04366 -0.79842,2.43589 -1.48441,3.11172 -3.15854,3.11172 -0.83466,0 -1.34986,-0.1811 -1.94869,-0.68498 z m -6.24442,0.0641 c -0.83769,-0.37818 -1.4488,-1.37748 -1.4488,-2.36911 0,-0.46644 2.19395,-9.15753 2.80348,-11.10568 0.0809,-0.25854 0.43351,-0.65775 0.7836,-0.88714 0.58716,-0.38472 0.78049,-0.37335 2.49209,0.14653 2.52879,0.7681 2.82935,1.23549 2.25092,3.50042 -0.93887,3.67629 -2.33161,8.10864 -2.88289,9.17469 -0.83048,1.60597 -2.46134,2.23422 -3.9984,1.54029 z m -77.44748,-7.13617 c -1.41702,-0.89937 -2.57257,-1.75428 -2.56788,-1.8998 0.005,-0.14552 0.56884,-1.51033 1.25368,-3.0329 1.58782,-3.5301 2.03459,-3.85115 4.04886,-2.90945 1.92767,0.90122 2.62027,1.50075 2.62027,2.26814 0,0.53073 -1.95621,5.70419 -2.6079,6.89692 -0.11446,0.2095 -1.01868,-0.22595 -2.74703,-1.32291 z m 73.44885,-1.53092 -2.68213,-1.27631 0.64132,-2.27719 c 1.34121,-4.76233 1.60719,-5.0257 4.23943,-4.19776 1.68409,0.52971 2.46788,1.15592 2.46788,1.97171 0,0.67664 -1.57612,6.67502 -1.81164,6.89472 -0.095,0.0886 -1.37969,-0.4132 -2.85486,-1.11517 z m -79.36276,-2.38938 c -1.29646,-0.89299 -2.411,-1.67109 -2.47676,-1.7291 -0.19963,-0.17614 1.73122,-3.8865 2.49469,-4.79383 0.39304,-0.46711 0.95258,-0.84928 1.24342,-0.84928 0.29084,0 1.29229,0.42697 2.22544,0.94881 1.26164,0.70556 1.69846,1.09561 1.70374,1.52136 0.008,0.614 -2.41602,6.52026 -2.67699,6.52364 -0.086,10e-4 -1.21708,-0.72861 -2.51354,-1.6216 z m 73.04905,-0.66941 c -1.30969,-0.66436 -2.4191,-1.24189 -2.46537,-1.2834 -0.17483,-0.15689 1.38551,-4.18214 1.93094,-4.98128 0.70671,-1.03544 1.75847,-1.07543 3.70943,-0.14103 1.67748,0.80342 1.73048,1.17431 0.67533,4.72607 -0.44419,1.49521 -0.80762,2.76262 -0.80762,2.81646 0,0.28604 -0.90232,-0.0511 -3.04271,-1.13682 z"
         id="path1"
         sodipodi:nodetypes="ssscccsscssscsscssssssscsssssssscscscssscccsssscsscscssssssccsssscssssssssscsssssssssssssssssssscscsscssccssscssccscsssssccscssssscssscccsssssssscssssssscssssscsssssssssscsssssssssssssssscsscsssssssssscssssssssssssssssssssscsssscsssssscscssscssssscsssssssssscssssssscssssscsssssccsssssssscsscsccscsccccsscssccsssssscssssscssccsssssssssssssssssssssssssssssssssssssssssccsssssssss" /></g><text
       xml:space="preserve"
       style="font-style:normal;font-variant:normal;font-weight:normal;font-stretch:normal;font-size:31.2142px;font-family:Impact;-inkscape-font-specification:'Impact, Normal';font-variant-ligatures:normal;font-variant-caps:normal;font-variant-numeric:normal;font-variant-east-asian:normal;text-align:center;letter-spacing:0px;writing-mode:lr-tb;direction:ltr;text-anchor:middle;fill:#000000;stroke:none;stroke-width:1.39712;stroke-linecap:round;stroke-linejoin:round;paint-order:stroke fill markers"
       x="102.52165"
       y="211.61684"
       id="text1"><tspan
         sodipodi:role="line"
         id="tspan9"
         x="102.52165"
         y="211.61684"
         style="stroke-width:1.39712">PROTESTONS</tspan></text><text
       xml:space="preserve"
       style="font-style:normal;font-variant:normal;font-weight:normal;font-stretch:normal;font-size:18.5803px;font-family:Impact;-inkscape-font-specification:'Impact, Normal ';font-variant-ligatures:normal;font-variant-caps:normal;font-variant-numeric:normal;font-variant-east-asian:normal;text-align:center;letter-spacing:0px;writing-mode:lr-tb;direction:ltr;text-anchor:middle;fill:#000000;stroke:none;stroke-width:0.831639;stroke-linecap:round;stroke-linejoin:round;paint-order:stroke fill markers"
       x="103.06509"
       y="236.29143"
       id="text1-4"><tspan
         sodipodi:role="line"
         id="tspan2"
         x="103.06509"
         y="236.29143"
         style="stroke-width:0.831639">AVEC NOS</tspan></text><text
       xml:space="preserve"
       style="font-style:normal;font-variant:normal;font-weight:normal;font-stretch:normal;font-size:48.1575px;font-family:Impact;-inkscape-font-specification:'Impact, Normal';font-variant-ligatures:normal;font-variant-caps:normal;font-variant-numeric:normal;font-variant-east-asian:normal;text-align:center;letter-spacing:0px;writing-mode:lr-tb;direction:ltr;text-anchor:middle;fill:#000000;stroke:none;stroke-width:2.15549;stroke-linecap:round;stroke-linejoin:round;paint-order:stroke fill markers"
       x="102.37688"
       y="286.92352"
       id="text1-4-4"><tspan
         sodipodi:role="line"
         id="tspan3"
         x="102.37688"
         y="286.92352"
         style="stroke-width:2.15549">BILLETS</tspan></text><g
       id="g4"
       transform="matrix(0.01124941,0,0,0.01124941,12.451454,9.9098133)"><path
         d="M 0,0 H 7410 V 3900 H 0"
         fill="#b31942"
         id="path1-0" /><path
         d="m 0,450 h 7410 m 0,600 H 0 m 0,600 h 7410 m 0,600 H 0 m 0,600 h 7410 m 0,600 H 0"
         stroke="#ffffff"
         stroke-width="300"
         id="path2" /><path
         d="M 0,0 H 2964 V 2100 H 0"
         fill="#0a3161"
         id="path3" /><g
         fill="#ffffff"
         id="g11"><g
           id="s18"><g
             id="s9"><g
               id="s5"><g
                 id="s4"><path
                   id="s"
                   d="M 247,90 317.53423,307.08204 132.87322,172.91796 H 361.12678 L 176.46577,307.08204 Z" /><use
                   xlink:href="#s"
                   y="420"
                   id="use3" /><use
                   xlink:href="#s"
                   y="840"
                   id="use4" /><use
                   xlink:href="#s"
                   y="1260"
                   id="use5" /></g><use
                 xlink:href="#s"
                 y="1680"
                 id="use6" /></g><use
               xlink:href="#s4"
               x="247"
               y="210"
               id="use7" /></g><use
             xlink:href="#s9"
             x="494"
             id="use8" /></g><use
           xlink:href="#s18"
           x="988"
           id="use9" /><use
           xlink:href="#s9"
           x="1976"
           id="use10" /><use
           xlink:href="#s5"
           x="2470"
           id="use11" /></g></g><g
       id="g5"
       transform="matrix(0.08232899,0,0,0.08232899,130.99961,9.5412093)"><rect
         fill="#003399"
         width="810"
         height="540"
         id="rect4"
         x="0"
         y="0" /><g
         fill="#ffcc00"
         transform="matrix(30,0,0,30,405,270)"
         id="g12"><use
           xlink:href="#s-7"
           y="-6"
           id="use5-8" /><use
           xlink:href="#s-7"
           y="6"
           id="use6-8" /><g
           id="l"><use
             xlink:href="#s-7"
             x="-6"
             id="use7-4" /><use
             xlink:href="#s-7"
             transform="rotate(-144,-2.3441661,-2.1106967)"
             id="use8-3" /><use
             xlink:href="#s-7"
             transform="rotate(144,-2.1106967,-2.3441661)"
             id="use9-1" /><use
             xlink:href="#s-7"
             transform="rotate(72,-4.6626491,-2.0759451)"
             id="use10-4" /><use
             xlink:href="#s-7"
             transform="rotate(72,-5.0759451,0.53350333)"
             id="use11-9" /></g><use
           xlink:href="#l"
           transform="scale(-1,1)"
           id="use12" /></g></g><path
       style="fill:none;fill-opacity:1;stroke:#fffefe;stroke-width:0.6;stroke-linecap:round;stroke-linejoin:round;stroke-dasharray:none;stroke-opacity:1;marker-end:url(#ConcaveTriangle);paint-order:stroke fill markers"
       d="m 162.88852,100.32297 0.58175,-40.087799"
       id="path5"
       sodipodi:nodetypes="cc" /><path
       style="fill:none;fill-opacity:1;stroke:#fffefe;stroke-width:0.600001;stroke-linecap:round;stroke-linejoin:round;stroke-dasharray:none;stroke-opacity:1;marker-end:url(#marker9-6);paint-order:stroke fill markers"
       d="m 129.22459,71.06258 22.66989,0.03646 0.0827,-10.699079"
       id="path6-5"
       sodipodi:nodetypes="ccc" /><path
       fill="#000000"
       d="m 80.930577,9.5145343 c -0.05499,0.119807 -0.111526,0.23851 -0.166957,0.357766 l -14.194679,20.1724547 1.664051,0.269648 -9.477913,6.370985 3.456188,1.095825 -15.273713,9.437168 3.797727,1.782756 -0.596276,0.36682 c 0.07729,-0.111969 0.153815,-0.224369 0.231662,-0.33601 -0.459906,0.355001 -0.923897,0.703051 -1.389541,1.0479 l -12.068735,7.42253 c -1.610168,0.8011 -3.245289,1.54424 -4.904703,2.22565 1.109296,-2.3734 2.387311,-4.76999 3.810644,-7.16613 l 9.210589,-12.885409 1.400696,2.991646 6.748736,-12.04996 1.295685,3.254563 6.193982,-10.409986 -0.0017,2.347009 5.347268,-6.852755 c 4.92538,-3.782266 9.972743,-7.007678 14.916976,-9.4424707 z"
       id="path1-8"
       style="fill:#ee1b24;fill-opacity:1;stroke-width:0.1;stroke:none;stroke-opacity:1;stroke-dasharray:none"
       sodipodi:nodetypes="cccccccccccccccccccccsc" /></g></svg>
